<svg id="BACKGROUND" xmlns="http://www.w3.org/2000/svg" xmlns:xlink="http://www.w3.org/1999/xlink" viewBox="0 0 1200 800"><defs><style>.cls-1,.cls-4{fill:none;}.cls-2{fill:#d6d6d6;}.cls-3{clip-path:url(#clip-path);}.cls-4{stroke:#437471;stroke-miterlimit:10;}</style><clipPath id="clip-path"><rect class="cls-1" x="-0.15" width="1200.15" height="800"/></clipPath></defs><path class="cls-2" d="M92.66,17.31a2.91,2.91,0,1,1-2.91-2.91A2.91,2.91,0,0,1,92.66,17.31Z"/><path class="cls-2" d="M220.22,17.31a2.91,2.91,0,1,1-2.91-2.91A2.91,2.91,0,0,1,220.22,17.31Z"/><path class="cls-2" d="M347.78,17.31a2.91,2.91,0,1,1-2.9-2.91A2.9,2.9,0,0,1,347.78,17.31Z"/><path class="cls-2" d="M475.35,17.31a2.91,2.91,0,1,1-2.91-2.91A2.91,2.91,0,0,1,475.35,17.31Z"/><path class="cls-2" d="M602.91,17.31A2.91,2.91,0,1,1,600,14.4,2.91,2.91,0,0,1,602.91,17.31Z"/><path class="cls-2" d="M730.47,17.31a2.91,2.91,0,1,1-2.91-2.91A2.91,2.91,0,0,1,730.47,17.31Z"/><path class="cls-2" d="M858,17.31a2.91,2.91,0,1,1-2.91-2.91A2.91,2.91,0,0,1,858,17.31Z"/><path class="cls-2" d="M985.6,17.31a2.91,2.91,0,1,1-2.91-2.91A2.91,2.91,0,0,1,985.6,17.31Z"/><path class="cls-2" d="M1113.16,17.31a2.91,2.91,0,1,1-2.91-2.91A2.91,2.91,0,0,1,1113.16,17.31Z"/><path class="cls-2" d="M92.66,144.88A2.91,2.91,0,1,1,89.75,142,2.9,2.9,0,0,1,92.66,144.88Z"/><path class="cls-2" d="M220.22,144.88a2.91,2.91,0,1,1-2.91-2.91A2.9,2.9,0,0,1,220.22,144.88Z"/><path class="cls-2" d="M347.78,144.88a2.91,2.91,0,1,1-2.9-2.91A2.9,2.9,0,0,1,347.78,144.88Z"/><path class="cls-2" d="M475.35,144.88a2.91,2.91,0,1,1-2.91-2.91A2.91,2.91,0,0,1,475.35,144.88Z"/><path class="cls-2" d="M602.91,144.88A2.91,2.91,0,1,1,600,142,2.9,2.9,0,0,1,602.91,144.88Z"/><path class="cls-2" d="M730.47,144.88a2.91,2.91,0,1,1-2.91-2.91A2.9,2.9,0,0,1,730.47,144.88Z"/><path class="cls-2" d="M858,144.88a2.91,2.91,0,1,1-2.91-2.91A2.9,2.9,0,0,1,858,144.88Z"/><path class="cls-2" d="M985.6,144.88a2.91,2.91,0,1,1-2.91-2.91A2.91,2.91,0,0,1,985.6,144.88Z"/><path class="cls-2" d="M1113.16,144.88a2.91,2.91,0,1,1-2.91-2.91A2.9,2.9,0,0,1,1113.16,144.88Z"/><path class="cls-2" d="M92.66,272.44a2.91,2.91,0,1,1-2.91-2.91A2.91,2.91,0,0,1,92.66,272.44Z"/><path class="cls-2" d="M220.22,272.44a2.91,2.91,0,1,1-2.91-2.91A2.91,2.91,0,0,1,220.22,272.44Z"/><path class="cls-2" d="M347.78,272.44a2.91,2.91,0,1,1-2.9-2.91A2.91,2.91,0,0,1,347.78,272.44Z"/><path class="cls-2" d="M475.35,272.44a2.91,2.91,0,1,1-2.91-2.91A2.92,2.92,0,0,1,475.35,272.44Z"/><path class="cls-2" d="M602.91,272.44a2.91,2.91,0,1,1-2.91-2.91A2.91,2.91,0,0,1,602.91,272.44Z"/><path class="cls-2" d="M730.47,272.44a2.91,2.91,0,1,1-2.91-2.91A2.91,2.91,0,0,1,730.47,272.44Z"/><path class="cls-2" d="M858,272.44a2.91,2.91,0,1,1-2.91-2.91A2.91,2.91,0,0,1,858,272.44Z"/><path class="cls-2" d="M985.6,272.44a2.91,2.91,0,1,1-2.91-2.91A2.92,2.92,0,0,1,985.6,272.44Z"/><path class="cls-2" d="M1113.16,272.44a2.91,2.91,0,1,1-2.91-2.91A2.91,2.91,0,0,1,1113.16,272.44Z"/><path class="cls-2" d="M92.66,400a2.91,2.91,0,1,1-2.91-2.91A2.91,2.91,0,0,1,92.66,400Z"/><path class="cls-2" d="M220.22,400a2.91,2.91,0,1,1-2.91-2.91A2.91,2.91,0,0,1,220.22,400Z"/><path class="cls-2" d="M347.78,400a2.91,2.91,0,1,1-2.9-2.91A2.9,2.9,0,0,1,347.78,400Z"/><path class="cls-2" d="M475.35,400a2.91,2.91,0,1,1-2.91-2.91A2.91,2.91,0,0,1,475.35,400Z"/><circle class="cls-2" cx="600" cy="400" r="2.91"/><path class="cls-2" d="M730.47,400a2.91,2.91,0,1,1-2.91-2.91A2.91,2.91,0,0,1,730.47,400Z"/><path class="cls-2" d="M858,400a2.91,2.91,0,1,1-2.91-2.91A2.91,2.91,0,0,1,858,400Z"/><path class="cls-2" d="M985.6,400a2.91,2.91,0,1,1-2.91-2.91A2.91,2.91,0,0,1,985.6,400Z"/><path class="cls-2" d="M1113.16,400a2.91,2.91,0,1,1-2.91-2.91A2.91,2.91,0,0,1,1113.16,400Z"/><path class="cls-2" d="M92.66,527.56a2.91,2.91,0,1,1-2.91-2.91A2.91,2.91,0,0,1,92.66,527.56Z"/><path class="cls-2" d="M220.22,527.56a2.91,2.91,0,1,1-2.91-2.91A2.91,2.91,0,0,1,220.22,527.56Z"/><path class="cls-2" d="M347.78,527.56a2.91,2.91,0,1,1-2.9-2.91A2.9,2.9,0,0,1,347.78,527.56Z"/><path class="cls-2" d="M475.35,527.56a2.91,2.91,0,1,1-2.91-2.91A2.91,2.91,0,0,1,475.35,527.56Z"/><path class="cls-2" d="M602.91,527.56a2.91,2.91,0,1,1-2.91-2.91A2.91,2.91,0,0,1,602.91,527.56Z"/><path class="cls-2" d="M730.47,527.56a2.91,2.91,0,1,1-2.91-2.91A2.91,2.91,0,0,1,730.47,527.56Z"/><path class="cls-2" d="M858,527.56a2.91,2.91,0,1,1-2.91-2.91A2.91,2.91,0,0,1,858,527.56Z"/><path class="cls-2" d="M985.6,527.56a2.91,2.91,0,1,1-2.91-2.91A2.91,2.91,0,0,1,985.6,527.56Z"/><path class="cls-2" d="M1113.16,527.56a2.91,2.91,0,1,1-2.91-2.91A2.91,2.91,0,0,1,1113.16,527.56Z"/><path class="cls-2" d="M92.66,655.12a2.91,2.91,0,1,1-2.91-2.9A2.91,2.91,0,0,1,92.66,655.12Z"/><path class="cls-2" d="M220.22,655.12a2.91,2.91,0,1,1-2.91-2.9A2.91,2.91,0,0,1,220.22,655.12Z"/><path class="cls-2" d="M347.78,655.12a2.91,2.91,0,1,1-2.9-2.9A2.9,2.9,0,0,1,347.78,655.12Z"/><path class="cls-2" d="M475.35,655.12a2.91,2.91,0,1,1-2.91-2.9A2.91,2.91,0,0,1,475.35,655.12Z"/><path class="cls-2" d="M602.91,655.12a2.91,2.91,0,1,1-2.91-2.9A2.91,2.91,0,0,1,602.91,655.12Z"/><path class="cls-2" d="M730.47,655.12a2.91,2.91,0,1,1-2.91-2.9A2.91,2.91,0,0,1,730.47,655.12Z"/><path class="cls-2" d="M858,655.12a2.91,2.91,0,1,1-2.91-2.9A2.91,2.91,0,0,1,858,655.12Z"/><path class="cls-2" d="M985.6,655.12a2.91,2.91,0,1,1-2.91-2.9A2.91,2.91,0,0,1,985.6,655.12Z"/><path class="cls-2" d="M1113.16,655.12a2.91,2.91,0,1,1-2.91-2.9A2.91,2.91,0,0,1,1113.16,655.12Z"/><path class="cls-2" d="M92.66,782.69a2.91,2.91,0,1,1-2.91-2.91A2.91,2.91,0,0,1,92.66,782.69Z"/><path class="cls-2" d="M220.22,782.69a2.91,2.91,0,1,1-2.91-2.91A2.91,2.91,0,0,1,220.22,782.69Z"/><path class="cls-2" d="M347.78,782.69a2.91,2.91,0,1,1-2.9-2.91A2.91,2.91,0,0,1,347.78,782.69Z"/><path class="cls-2" d="M475.35,782.69a2.91,2.91,0,1,1-2.91-2.91A2.92,2.92,0,0,1,475.35,782.69Z"/><path class="cls-2" d="M602.91,782.69a2.91,2.91,0,1,1-2.91-2.91A2.91,2.91,0,0,1,602.91,782.69Z"/><path class="cls-2" d="M730.47,782.69a2.91,2.91,0,1,1-2.91-2.91A2.91,2.91,0,0,1,730.47,782.69Z"/><path class="cls-2" d="M858,782.69a2.91,2.91,0,1,1-2.91-2.91A2.91,2.91,0,0,1,858,782.69Z"/><path class="cls-2" d="M985.6,782.69a2.91,2.91,0,1,1-2.91-2.91A2.92,2.92,0,0,1,985.6,782.69Z"/><path class="cls-2" d="M1113.16,782.69a2.91,2.91,0,1,1-2.91-2.91A2.91,2.91,0,0,1,1113.16,782.69Z"/><g class="cls-3"><path class="cls-4" d="M-43,29.37S7.9,119.15,133.6,103.19C274.54,85.29,335.12,189,300.2,259.82s-190,85.79-168.34,200.52S-35,626.94-35,626.94"/><path class="cls-4" d="M-80.89,133.12S26.54,172,133.44,158.06s119.4,48.82,106.9,73.83C214.4,283.76,75.73,293.74,66.76,377.54c-6.75,63,46.88,147.65-74.83,192.54"/><path class="cls-4" d="M-33,175s109.82-14,90.22,47.89C34.74,293.85-18,292.74,31.84,382.53,49.58,414.46,54.78,543.14-43,517.21"/><ellipse class="cls-4" cx="153.05" cy="219.91" rx="49.38" ry="26.94"/><path class="cls-4" d="M1200,307s-198.14-46.56-258,149c-43,140.31-46.61,216.81-135.7,255.39S665.33,758.23,660,800"/><path class="cls-4" d="M894.06,800s-52.31-129.83,85.72-197.66c93.17-45.8,49.48-201.26,109.87-250.74,47.89-39.24,110.35,45.49,110.35,45.49"/><path class="cls-4" d="M935,835.08s1.59-100.42,108-166.27S1107.76,489.24,1169,472s122.38,57.2,122.38,57.2"/><path class="cls-4" d="M1009.84,799.2s-8-82.47,73.16-93.11,150.31,79.51,150.31,79.51"/></g></svg>