<svg id="Layer_1" data-name="Layer 1" xmlns="http://www.w3.org/2000/svg" xmlns:xlink="http://www.w3.org/1999/xlink" viewBox="0 0 25 15"><defs><style>.cls-1{fill:none;}.cls-2{fill:#0eb8ad;}.cls-3{fill:#25245e;}.cls-4{fill:#e82352;}.cls-5{fill:#f8b03c;}.cls-6{fill:#faf0f1;}.cls-7{opacity:0.1;}.cls-8{fill:#003ca7;}.cls-10,.cls-11,.cls-12,.cls-13,.cls-8,.cls-9{stroke:#020202;stroke-miterlimit:10;stroke-width:0.03px;}.cls-9{fill:url(#New_Pattern_Swatch_5);}.cls-10{fill:url(#New_Pattern_Swatch_6);}.cls-11{fill:#d9e021;}.cls-12{fill:url(#New_Pattern_Swatch_7);}.cls-13{fill:url(#New_Pattern_Swatch_4);}</style><pattern id="New_Pattern_Swatch_5" data-name="New Pattern Swatch 5" width="3" height="3" patternUnits="userSpaceOnUse" viewBox="0 0 3 3"><rect class="cls-1" width="3" height="3"/><rect class="cls-3" width="3" height="3"/></pattern><pattern id="New_Pattern_Swatch_6" data-name="New Pattern Swatch 6" width="3" height="3" patternUnits="userSpaceOnUse" viewBox="0 0 3 3"><rect class="cls-1" width="3" height="3"/><rect class="cls-4" width="3" height="3"/></pattern><pattern id="New_Pattern_Swatch_7" data-name="New Pattern Swatch 7" width="3" height="3" patternUnits="userSpaceOnUse" viewBox="0 0 3 3"><rect class="cls-1" width="3" height="3"/><rect class="cls-5" width="3" height="3"/></pattern><pattern id="New_Pattern_Swatch_4" data-name="New Pattern Swatch 4" width="3" height="3" patternUnits="userSpaceOnUse" viewBox="0 0 3 3"><rect class="cls-1" width="3" height="3"/><rect class="cls-2" width="3" height="3"/></pattern></defs><rect class="cls-6" x="0.1" y="-0.03" width="25" height="15"/><g class="cls-7"><path class="cls-8" d="M12.83,14.91a.69.69,0,0,1-.23-.16l-.1-.1a1.78,1.78,0,0,1-.35-.37,1.07,1.07,0,0,1-.1-.92c.08-.25.18-.5.28-.74l.09-.2a5.9,5.9,0,0,0,.4-1.25,1.34,1.34,0,0,0-.3-1.06,1.12,1.12,0,0,0-.86-.4h-.12a1.14,1.14,0,0,1-.25,0,.41.41,0,0,1-.35-.34,1.1,1.1,0,0,1,0-.31,4.52,4.52,0,0,0-.05-.83A1.45,1.45,0,0,0,9.91,7l-.35-.15A4.83,4.83,0,0,1,9,6.6a2.65,2.65,0,0,1-1.12-1l-.12-.19a5.43,5.43,0,0,0-.32-.51.74.74,0,0,0-.59-.36,1,1,0,0,0-.47.15A2.32,2.32,0,0,0,5.22,6.48,3.63,3.63,0,0,0,5.28,7.7c0,.06,0,.13,0,.19a5.35,5.35,0,0,1,.11.55,2.66,2.66,0,0,1,0,.88A4.05,4.05,0,0,1,5,10.6a1.32,1.32,0,0,1-1,.71l-.42,0A3.54,3.54,0,0,1,2,11l-.23-.1a4.55,4.55,0,0,0-.72-.3,2.44,2.44,0,0,0-.62-.1H.15l0,0v-1H.23A4,4,0,0,1,2,10.16a5.36,5.36,0,0,0,.7.47,2.05,2.05,0,0,0,.87.25h.07a1.13,1.13,0,0,0,1-.57A2.59,2.59,0,0,0,5,9a3.34,3.34,0,0,0-.12-.91,3.85,3.85,0,0,1-.13-1.16,4.23,4.23,0,0,1,.35-1.69,3.64,3.64,0,0,1,.46-.7l.21-.26a10.4,10.4,0,0,1,.69-.8,3.41,3.41,0,0,1,.41-.38,3.26,3.26,0,0,0,.75-.81,6.31,6.31,0,0,1,.81-1A6.1,6.1,0,0,1,9.06.79L9.15.71A1.37,1.37,0,0,0,9.64.07.2.2,0,0,1,9.7,0h1.2s0,0,0,.07a1.54,1.54,0,0,0,.4.7,4.69,4.69,0,0,1,.91,1.45,3.83,3.83,0,0,0,.53,1,3.92,3.92,0,0,0,.68.67l.17.13c.26.2.53.41.8.59a1.21,1.21,0,0,0,.61.21h0a.85.85,0,0,0,.63-.29,2.37,2.37,0,0,0,.43-.64A9.37,9.37,0,0,0,16.5,3l.12-.31A6.38,6.38,0,0,1,17,2a1,1,0,0,0,.11-.64,6.1,6.1,0,0,1-.07-1,.49.49,0,0,1,0-.12S17,.08,17,0s0,0,0,0h1.05a.19.19,0,0,1,.07.08,2.14,2.14,0,0,0,.22.43,1.39,1.39,0,0,0,1,.59,1.32,1.32,0,0,0,.28,0h.19l.32,0a4.39,4.39,0,0,1,.72.07,1,1,0,0,1,.76.89,2.71,2.71,0,0,1,0,.7,1.25,1.25,0,0,1-1,1.05l-.35,0a1.76,1.76,0,0,1-.79-.19,5.09,5.09,0,0,1-.5-.3l-.2-.12a2.85,2.85,0,0,0-.35-.17A.83.83,0,0,0,18.13,3a1.12,1.12,0,0,0-.59.18,2,2,0,0,0-.62.63,5.87,5.87,0,0,0-.45.86l-.12.25a2.06,2.06,0,0,1-.26.41.86.86,0,0,1-.62.28h-.1a1.68,1.68,0,0,1-1.14-.49l-.54-.49-1-.86a3.86,3.86,0,0,1-.82-1.1v0a3,3,0,0,0-.55-.84,1.41,1.41,0,0,0-1-.47h0a.81.81,0,0,0-.63.33,2.47,2.47,0,0,0-.28.4A11,11,0,0,1,8.5,3.42a1.68,1.68,0,0,0-.35.74,1.81,1.81,0,0,0,.1.93A1.81,1.81,0,0,0,9.39,6.21a5.6,5.6,0,0,0,.54.17l.39.12a1.83,1.83,0,0,1,1,.89l.18.38.14.28a2.44,2.44,0,0,0,.72.85,5.92,5.92,0,0,1,.91.85,10.23,10.23,0,0,1,.75,1c.15.24.29.34.46.34a1.12,1.12,0,0,0,.43-.14,1.92,1.92,0,0,0,.78-.85A7.6,7.6,0,0,0,16.16,9a3.85,3.85,0,0,0,.22-1.06c0-.17,0-.34,0-.51s0-.3,0-.44a2.26,2.26,0,0,1,.08-.5A.67.67,0,0,1,17.08,6l.42,0a1.72,1.72,0,0,1,.88.23,2.17,2.17,0,0,1,.74.79,3.52,3.52,0,0,1,.47,1.5v.13a3.17,3.17,0,0,0,.15.86,1.13,1.13,0,0,0,.46.65,1,1,0,0,0,.25.1h.1a.38.38,0,0,0,.36-.27,2.44,2.44,0,0,0,.15-.59V9.28a4.18,4.18,0,0,1,.35-1.22A3.65,3.65,0,0,1,22,7.27c.19-.21.41-.41.62-.61l.17-.16a6.63,6.63,0,0,0,.75-.84,9.63,9.63,0,0,1,.9-1A7.29,7.29,0,0,1,25,4.11l0,0,0,0V5.92a1,1,0,0,1-.34.35,5,5,0,0,1-.85.51l-.21.1a7.28,7.28,0,0,0-.9.5,2.33,2.33,0,0,0-1,1.36,1.88,1.88,0,0,0-.08.55v.1a3.38,3.38,0,0,0,0,.55,1,1,0,0,0,.62.81c.2.08.4.14.6.2l.17.05a4.84,4.84,0,0,1,1.08.42,1.52,1.52,0,0,1,.79,1.2,1.69,1.69,0,0,1-.19,1.06,1,1,0,0,1-.52.44,3.54,3.54,0,0,1-.55.18l-.14,0h0a3.59,3.59,0,0,0-.43.14.92.92,0,0,0-.39.35l-.08.08h-.77a.16.16,0,0,1,0-.12v0a1.81,1.81,0,0,0-.11-.47.39.39,0,0,0-.29-.28,3,3,0,0,0-.51-.08l-.78-.08h-.25a1.75,1.75,0,0,0-1.19.4,2,2,0,0,0-.43.58s0,.08-.07.09h-.81s0,0,0-.07a1.78,1.78,0,0,1,.33-.6,2.8,2.8,0,0,1,1.41-.92,1.79,1.79,0,0,1,.42-.05H20a3,3,0,0,0,.4,0,.77.77,0,0,0,.52-.25.63.63,0,0,0,.12-.23,1.51,1.51,0,0,0-.52-1.6l-.11-.08a5.34,5.34,0,0,1-.48-.35,2.12,2.12,0,0,1-.74-1.32,6.67,6.67,0,0,1-.06-.75,3.32,3.32,0,0,0-.14-1,1.72,1.72,0,0,0-.6-.89,1,1,0,0,0-.6-.23l-.2,0a.76.76,0,0,0-.56.51,1.93,1.93,0,0,0-.12.63,14.94,14.94,0,0,1-.23,1.87,7.08,7.08,0,0,0-.09.79v.11a2.19,2.19,0,0,1-.47,1.24c-.09.11-.19.21-.29.31l-.18.18a1.85,1.85,0,0,0-.44.83c0,.1-.05.21-.07.32l-.12.47c-.07.26-.17.52-.26.78l-.09.24a.1.1,0,0,1-.05.06H12.83m0,0h1.76a.13.13,0,0,0,.07-.09c.13-.34.26-.67.36-1s.13-.53.19-.79a1.87,1.87,0,0,1,.43-.81c.16-.16.32-.32.47-.49a2.2,2.2,0,0,0,.48-1.26c0-.3.05-.61.1-.9a14.85,14.85,0,0,0,.23-1.88A1.9,1.9,0,0,1,17,7.09a.71.71,0,0,1,.53-.48l.19,0a.93.93,0,0,1,.58.22,1.77,1.77,0,0,1,.58.88,3.36,3.36,0,0,1,.14,1,6.32,6.32,0,0,0,.06.74,2.12,2.12,0,0,0,.76,1.35,6.36,6.36,0,0,0,.59.43,1.45,1.45,0,0,1,.5,1.56.53.53,0,0,1-.11.21.7.7,0,0,1-.5.24,2.55,2.55,0,0,1-.39,0h-.43a2.1,2.1,0,0,0-.43,0,2.93,2.93,0,0,0-1.43.93,2,2,0,0,0-.34.62s0,.09,0,.12h.84s.07-.06.1-.11a1.83,1.83,0,0,1,.42-.57,1.74,1.74,0,0,1,1.16-.39h.25l.77.08a3,3,0,0,1,.51.08.38.38,0,0,1,.27.25,2.52,2.52,0,0,1,.1.46.31.31,0,0,0,.06.19h.81s.06-.06.09-.1a.93.93,0,0,1,.38-.33,3.59,3.59,0,0,1,.43-.14,5.68,5.68,0,0,0,.7-.22,1.1,1.1,0,0,0,.54-.46A1.76,1.76,0,0,0,25,12.62a1.6,1.6,0,0,0-.81-1.24A5.57,5.57,0,0,0,23.07,11a7.49,7.49,0,0,1-.76-.25,1,1,0,0,1-.6-.78,4.49,4.49,0,0,1,0-.64,2,2,0,0,1,.09-.54,2.26,2.26,0,0,1,1-1.34,9.93,9.93,0,0,1,1.11-.6,5.67,5.67,0,0,0,.86-.5,1.16,1.16,0,0,0,.35-.38V4h0s-.06,0-.09.06c-.19.17-.38.34-.56.52a9.06,9.06,0,0,0-.9,1,8.51,8.51,0,0,1-.75.83c-.27.26-.54.5-.79.78A3.57,3.57,0,0,0,21.4,8,4.11,4.11,0,0,0,21,9.28a3.4,3.4,0,0,1-.15.63.36.36,0,0,1-.33.24h-.09a.67.67,0,0,1-.23-.1,1.06,1.06,0,0,1-.46-.63,3.93,3.93,0,0,1-.15-1,3.65,3.65,0,0,0-.47-1.52,2.24,2.24,0,0,0-.76-.8,1.63,1.63,0,0,0-.9-.24,3.11,3.11,0,0,0-.43,0,.72.72,0,0,0-.62.55,2.09,2.09,0,0,0-.08.5c0,.32,0,.64,0,1a3.63,3.63,0,0,1-.21,1,8.54,8.54,0,0,1-.5,1.11,1.81,1.81,0,0,1-.76.83.9.9,0,0,1-.41.14c-.15,0-.28-.09-.43-.32a9.31,9.31,0,0,0-.75-1,6.64,6.64,0,0,0-.91-.85A2.66,2.66,0,0,1,11.65,8c-.11-.21-.2-.44-.32-.66a1.77,1.77,0,0,0-1-.9c-.3-.11-.62-.18-.93-.3A1.77,1.77,0,0,1,8.29,5.08a1.92,1.92,0,0,1-.1-.92,1.57,1.57,0,0,1,.34-.71,11.76,11.76,0,0,0,1-1.35,2.8,2.8,0,0,1,.27-.4.76.76,0,0,1,.6-.31h0a1.41,1.41,0,0,1,.95.46,3.08,3.08,0,0,1,.55.86,3.77,3.77,0,0,0,.82,1.11l1.51,1.35a1.73,1.73,0,0,0,1.16.5h.1a.91.91,0,0,0,.65-.29A2.26,2.26,0,0,0,16.38,5,9.5,9.5,0,0,1,17,3.86a1.84,1.84,0,0,1,.61-.63,1.08,1.08,0,0,1,.57-.17.92.92,0,0,1,.36.07l.34.17c.23.15.46.3.71.43a1.74,1.74,0,0,0,.8.19,2,2,0,0,0,.35,0,1.27,1.27,0,0,0,1-1.08,2.48,2.48,0,0,0,0-.72,1,1,0,0,0-.79-.92,7.44,7.44,0,0,0-1-.09,3.7,3.7,0,0,1-.47,0,1.35,1.35,0,0,1-1-.58c-.08-.13-.15-.27-.22-.41A.17.17,0,0,0,18.1,0H17A.1.1,0,0,0,17,0c0,.08,0,.17,0,.25a6.9,6.9,0,0,0,.07,1,.88.88,0,0,1-.11.62,5.53,5.53,0,0,0-.33.74c-.16.39-.3.79-.49,1.17a2.24,2.24,0,0,1-.42.63.79.79,0,0,1-.6.28h0a1.22,1.22,0,0,1-.58-.2c-.34-.22-.65-.48-1-.72a4.25,4.25,0,0,1-.68-.66,4.06,4.06,0,0,1-.52-1A4.82,4.82,0,0,0,11.37.75,1.75,1.75,0,0,1,11,.06a.14.14,0,0,0-.07-.1H9.68S9.62,0,9.61.05a1.44,1.44,0,0,1-.48.63,6.94,6.94,0,0,0-.72.6,7,7,0,0,0-.81,1,3.06,3.06,0,0,1-.75.81,2.93,2.93,0,0,0-.41.38c-.32.34-.61.7-.9,1.06a3.57,3.57,0,0,0-.47.72,4.26,4.26,0,0,0-.35,1.69,4.27,4.27,0,0,0,.13,1.18A3.35,3.35,0,0,1,5,9a2.51,2.51,0,0,1-.37,1.29,1.08,1.08,0,0,1-1,.55H3.55a1.9,1.9,0,0,1-.86-.25,4.08,4.08,0,0,1-.7-.47A4.16,4.16,0,0,0,.24,9.35H.15a.09.09,0,0,0-.08,0v1.07s0,.05.08.05h0l.26,0a2.59,2.59,0,0,1,.61.1A6.47,6.47,0,0,1,2,11a3.71,3.71,0,0,0,1.55.37l.43,0a1.36,1.36,0,0,0,1-.73,4.12,4.12,0,0,0,.45-1.29,2.66,2.66,0,0,0,0-.89,6.24,6.24,0,0,0-.16-.75,3.23,3.23,0,0,1-.06-1.2A2.25,2.25,0,0,1,6.38,4.73a1,1,0,0,1,.45-.15.69.69,0,0,1,.55.34,6.33,6.33,0,0,1,.44.7A2.73,2.73,0,0,0,9,6.64c.31.15.63.26.94.39a1.46,1.46,0,0,1,.91,1.18,4.63,4.63,0,0,1,0,.83,1.17,1.17,0,0,0,0,.32.45.45,0,0,0,.39.37,1.06,1.06,0,0,0,.25,0h.12a1.19,1.19,0,0,1,1.12,1.41,5.29,5.29,0,0,1-.4,1.24,8.41,8.41,0,0,0-.36.95,1.07,1.07,0,0,0,.1,1,1.63,1.63,0,0,0,.36.38c.11.1.2.23.35.27Z"/><path class="cls-8" d="M.16,5.88l0,0V5.25a.07.07,0,0,1,.06,0H.63a2.2,2.2,0,0,0,.68-.09,1.88,1.88,0,0,0,1-.93,2.83,2.83,0,0,0,.31-1.17c0-.29,0-.58,0-.87a4.82,4.82,0,0,0-.1-.87A.63.63,0,0,0,2.12.8,3.58,3.58,0,0,0,1.31.65a5.62,5.62,0,0,0-.57,0H.17L.11.63V.46A3.08,3.08,0,0,0,.11,0V0H3.19a.86.86,0,0,0,.37.1.83.83,0,0,0,.22,0L3.9,0l.17,0H5S5,0,5,.07a2.09,2.09,0,0,1-.52.51L4.27.7a4.3,4.3,0,0,0-.51.36,1.47,1.47,0,0,0-.47.79,5.21,5.21,0,0,0-.15.95v0a3.77,3.77,0,0,1-.38,1.48,2.59,2.59,0,0,1-.3.46,2.7,2.7,0,0,1-1.68,1,6,6,0,0,1-.6.09h0m0,0h0l.6-.09a2.75,2.75,0,0,0,1.7-1,2.85,2.85,0,0,0,.31-.46,3.82,3.82,0,0,0,.38-1.5,5.4,5.4,0,0,1,.14-1,1.47,1.47,0,0,1,.47-.77C4,.91,4.25.77,4.48.61A2.14,2.14,0,0,0,5,.1S5.08,0,5,0h-1L3.77,0a.76.76,0,0,1-.21,0A.7.7,0,0,1,3.2,0H.14C.08,0,.07,0,.07,0s0,.41,0,.61a.12.12,0,0,0,.1,0H.74a5.15,5.15,0,0,1,.56,0,3.64,3.64,0,0,1,.8.15.64.64,0,0,1,.42.48,5,5,0,0,1,.09.87c0,.28,0,.57,0,.85a2.89,2.89,0,0,1-.3,1.16,1.87,1.87,0,0,1-1,.91,2.07,2.07,0,0,1-.66.09H.17a.11.11,0,0,0-.1,0v.64a.11.11,0,0,0,.09,0Z"/><path class="cls-8" d="M5.43,14.91a3.17,3.17,0,0,1,.23-.81,9,9,0,0,1,.54-1l.18-.3,0,0a8.88,8.88,0,0,1,.52-.83,2.27,2.27,0,0,1,1.54-1,1.23,1.23,0,0,1,1.08.33,1.64,1.64,0,0,1,.28.54,7.8,7.8,0,0,1,.24,1l0,.08a5.78,5.78,0,0,0,.46,1.44,2.39,2.39,0,0,1,.19.57H9.86a.15.15,0,0,1,0-.08v-.06c-.05-.37-.1-.74-.13-1.12v-.13a6.71,6.71,0,0,0-.07-.76,2,2,0,0,0-.36-1,.92.92,0,0,0-.72-.4H8.43a1.37,1.37,0,0,0-.95.43,2.92,2.92,0,0,0-.6.85c-.13.26-.27.51-.41.76s-.18.32-.26.48a3.35,3.35,0,0,0-.36.91c0,.06,0,.1-.06.11H5.43m0,0H5.8c.06,0,.07-.08.09-.14a3.51,3.51,0,0,1,.35-.9l.68-1.24a2.93,2.93,0,0,1,.58-.84,1.36,1.36,0,0,1,.93-.42h.09a.9.9,0,0,1,.69.38,2,2,0,0,1,.35,1,8.72,8.72,0,0,1,.08.88c0,.4.09.8.14,1.19a.16.16,0,0,0,.07.11h.93a2.34,2.34,0,0,0-.21-.63,5.41,5.41,0,0,1-.45-1.43,7.3,7.3,0,0,0-.27-1.12,1.37,1.37,0,0,0-.28-.55,1.11,1.11,0,0,0-.86-.38,1.15,1.15,0,0,0-.26,0,2.36,2.36,0,0,0-1.56,1,9.87,9.87,0,0,0-.54.88,10.69,10.69,0,0,0-.73,1.33,3.14,3.14,0,0,0-.24.86Z"/><path class="cls-8" d="M1.68,14.91a.2.2,0,0,1-.1-.07.89.89,0,0,0-.6-.27H.8l-.35,0H.22a.18.18,0,0,1-.11,0V13.23l.12,0,.45-.08.25,0a1.45,1.45,0,0,1,.83.28,2.68,2.68,0,0,1,1,1.14,2.43,2.43,0,0,1,.13.38H1.68m0,0H2.89a3.22,3.22,0,0,0-.14-.44,2.94,2.94,0,0,0-1-1.16,1.54,1.54,0,0,0-.86-.28l-.26,0-.6.11v1.38a.19.19,0,0,0,.15.06l.13,0,.45,0H1a.87.87,0,0,1,.57.26.42.42,0,0,0,.12.08Z"/><path class="cls-8" d="M25,2.53c-.05-.07-.1-.14-.14-.21a.71.71,0,0,0-.1-.14l-.06-.1a3.4,3.4,0,0,0-.38-.47,2.12,2.12,0,0,0-.84-.53L23.09.94,22.69.8a.88.88,0,0,1-.58-.8h.81a.45.45,0,0,1,.16.12A1.53,1.53,0,0,0,23.6.4l.22.08a3.28,3.28,0,0,1,.7.3,2.53,2.53,0,0,1,.45.34s0,0,0,.07l0,.05V2.53m0,.1V1.23c0-.05,0-.11-.08-.14a3,3,0,0,0-.45-.35,6.26,6.26,0,0,0-.93-.38,1.51,1.51,0,0,1-.5-.27A.75.75,0,0,0,22.93,0h-.86a.92.92,0,0,0,.61.88l.82.28a2.08,2.08,0,0,1,.83.52,5.93,5.93,0,0,1,.43.56,3.36,3.36,0,0,0,.31.43Z"/><path class="cls-9" d="M2.9,14.91a.09.09,0,0,1,0-.06,2.62,2.62,0,0,0-1.39-1.66,1.32,1.32,0,0,0-.53-.11l-.36,0-.21,0-.2,0H.11v-2.7h0a3.42,3.42,0,0,1,1.64.42,4,4,0,0,0,1.47.46l.32,0a2.28,2.28,0,0,0,.66-.1A1.34,1.34,0,0,0,5,10.64,4.27,4.27,0,0,0,5.48,9a2.7,2.7,0,0,0-.07-.91c0-.08,0-.15,0-.23a3.38,3.38,0,0,1-.11-.57,2.64,2.64,0,0,1,.49-2,1.69,1.69,0,0,1,.83-.63.83.83,0,0,1,.29-.06c.19,0,.33.09.51.32a4.32,4.32,0,0,1,.33.5c.09.14.18.29.28.43a2.4,2.4,0,0,0,.74.67,4.83,4.83,0,0,0,.8.37L9.9,7a1.46,1.46,0,0,1,.8.76,2.65,2.65,0,0,1,.15.71,1.29,1.29,0,0,1,0,.34,2,2,0,0,0,0,.42c.06.39.22.47.54.49h.17a1.46,1.46,0,0,1,.36,0,1.2,1.2,0,0,1,.83,1.14A3,3,0,0,1,12.55,12c-.07.19-.15.39-.23.58s-.14.33-.2.49a2.53,2.53,0,0,0-.17.67.9.9,0,0,0,.2.6,1.44,1.44,0,0,0,.29.31l.13.12.16.15H10.79s0,0,0,0a3.89,3.89,0,0,0-.28-.74l0,0a6.2,6.2,0,0,1-.38-1.36,6.24,6.24,0,0,0-.28-1.09,1.08,1.08,0,0,0-1.08-.78H8.65a2,2,0,0,0-1.35.58,3.62,3.62,0,0,0-.73,1l-.09.15-.64,1.1a3.79,3.79,0,0,0-.43,1.17.23.23,0,0,1,0,.1H4.8s0-.05,0-.09v0A3.22,3.22,0,0,1,5,14.16a11.81,11.81,0,0,1,1.38-2.4,4.44,4.44,0,0,1,1.88-1.41c.24-.09.5-.17.71-.23a1.08,1.08,0,0,0,.75-.72,2.72,2.72,0,0,0,.23-1,1,1,0,0,0-.38-.86A3.44,3.44,0,0,0,9,7.17l-.09,0-.05,0a4.78,4.78,0,0,1-.72-.44A4.51,4.51,0,0,1,7.5,6a4.43,4.43,0,0,0-.36-.38.75.75,0,0,0-.49-.2A.84.84,0,0,0,6,5.79,1.63,1.63,0,0,0,5.69,7a4.46,4.46,0,0,0,.14.71,2.84,2.84,0,0,1,0,1.33,10.56,10.56,0,0,1-.54,1.78,1.4,1.4,0,0,1-1.08.88c-.2,0-.41.06-.61.08H3.45a3.47,3.47,0,0,0-.71.1.82.82,0,0,0-.24.13.39.39,0,0,0-.14.43,1.58,1.58,0,0,0,.2.47c.12.2.26.38.39.56l.2.26a3.34,3.34,0,0,1,.53,1h0a.1.1,0,0,1,0,.09H2.9m0,0h.83a.19.19,0,0,0,0-.15,3.32,3.32,0,0,0-.54-1c-.19-.27-.41-.53-.59-.82a1.25,1.25,0,0,1-.19-.46.37.37,0,0,1,.12-.39A.72.72,0,0,1,2.75,12a3.85,3.85,0,0,1,.83-.11c.23,0,.46,0,.68-.08a1.46,1.46,0,0,0,1.11-.91,10.6,10.6,0,0,0,.54-1.79,2.72,2.72,0,0,0,0-1.33A4.46,4.46,0,0,1,5.73,7,1.6,1.6,0,0,1,6,5.82a.81.81,0,0,1,.61-.33.71.71,0,0,1,.46.19,3.24,3.24,0,0,1,.36.38,4.54,4.54,0,0,0,.62.62,7.12,7.12,0,0,0,.78.48,3.49,3.49,0,0,1,.71.44,1,1,0,0,1,.36.83,2.92,2.92,0,0,1-.22,1,1.13,1.13,0,0,1-.73.7,5.88,5.88,0,0,0-.71.23,4.34,4.34,0,0,0-1.9,1.42A11.92,11.92,0,0,0,5,14.14a3.83,3.83,0,0,0-.22.65.14.14,0,0,0,0,.16h.6a.27.27,0,0,0,.07-.13,4,4,0,0,1,.43-1.16c.23-.42.48-.84.72-1.25a3.35,3.35,0,0,1,.73-.94,2,2,0,0,1,1.32-.57h.07a1.05,1.05,0,0,1,1,.75A6.68,6.68,0,0,1,10,12.74a5.74,5.74,0,0,0,.39,1.36,4.2,4.2,0,0,1,.29.77.17.17,0,0,0,.06.08h2.05l-.23-.22a3.33,3.33,0,0,1-.42-.42.91.91,0,0,1-.19-.57,2.14,2.14,0,0,1,.17-.66L12.59,12a2.83,2.83,0,0,0,.24-1.08A1.22,1.22,0,0,0,12,9.75a1.91,1.91,0,0,0-.53-.05c-.32,0-.46-.1-.52-.46s0-.5,0-.76a2.59,2.59,0,0,0-.16-.72A1.44,1.44,0,0,0,9.91,7a10.16,10.16,0,0,1-1.17-.52A2.55,2.55,0,0,1,8,5.81c-.22-.3-.38-.65-.61-.94a.67.67,0,0,0-.54-.33,1,1,0,0,0-.31.06,1.83,1.83,0,0,0-.84.65,2.69,2.69,0,0,0-.5,2.05,6.91,6.91,0,0,0,.16.79,2.5,2.5,0,0,1,.07.9,4.36,4.36,0,0,1-.5,1.63,1.27,1.27,0,0,1-.73.62,2.05,2.05,0,0,1-.65.1l-.32,0a4.09,4.09,0,0,1-1.45-.45,3.4,3.4,0,0,0-1.66-.43H.07V13.2a.11.11,0,0,0,.08,0h0l.41-.08c.12,0,.23,0,.35,0a1.17,1.17,0,0,1,.51.11,2.41,2.41,0,0,1,.83.63,2.5,2.5,0,0,1,.54,1,.13.13,0,0,0,.07.09Z"/><path class="cls-8" d="M14.64,14.91l.1-.27a7.44,7.44,0,0,0,.36-1.16,4.84,4.84,0,0,1,.2-.72,1.18,1.18,0,0,1,.28-.45,3.45,3.45,0,0,1,.26-.28l.16-.16a2,2,0,0,0,.56-1.23c.06-.63.16-1.26.25-1.8,0-.25.06-.51.08-.76V7.92a3.3,3.3,0,0,1,.12-.8.78.78,0,0,1,.73-.55h.12a1.31,1.31,0,0,1,.92.76,2.51,2.51,0,0,1,.26,1.06,2.53,2.53,0,0,1,0,.28,5.52,5.52,0,0,0,.07.8A2.19,2.19,0,0,0,20,10.86l.19.14.35.25a1.22,1.22,0,0,1,.47.91,1.79,1.79,0,0,1,0,.53.57.57,0,0,1-.41.48,1.84,1.84,0,0,1-.44.07h-.43l-.35,0a2.22,2.22,0,0,0-1,.38,2.49,2.49,0,0,0-.79.75,1.8,1.8,0,0,0-.25.53h-1s0,0,0-.08v-.19a1.83,1.83,0,0,0,0-.33v0a.26.26,0,0,0-.14-.21h-.06a.29.29,0,0,0-.19.11,1.73,1.73,0,0,0-.37.58v0a.21.21,0,0,1-.08.12h-.83m-.05,0h.89c.07,0,.09-.11.12-.18a1.74,1.74,0,0,1,.36-.56c.05-.05.1-.1.16-.1h.05c.09,0,.09.12.11.2a4,4,0,0,1,0,.49c0,.06,0,.11,0,.14h1a1.67,1.67,0,0,1,.25-.54,2.39,2.39,0,0,1,.78-.74,2.08,2.08,0,0,1,1-.38l.35,0h.43a1.4,1.4,0,0,0,.45-.06A.63.63,0,0,0,21,12.7a2.44,2.44,0,0,0,0-.54,1.24,1.24,0,0,0-.49-.94c-.17-.14-.36-.26-.53-.39a2.13,2.13,0,0,1-.86-1.36,7.59,7.59,0,0,1-.08-1.07,2.5,2.5,0,0,0-.27-1.08,1.32,1.32,0,0,0-.95-.78h-.12a.83.83,0,0,0-.77.58,3.69,3.69,0,0,0-.12.81c0,.31,0,.61-.09.91-.1.6-.19,1.2-.25,1.8A1.94,1.94,0,0,1,16,11.84l-.42.44a1.42,1.42,0,0,0-.29.47,6.05,6.05,0,0,0-.2.73A12,12,0,0,1,14.59,15Z"/><path class="cls-8" d="M15.09,4.76l-.23,0a1.44,1.44,0,0,1-.49-.23,14.08,14.08,0,0,1-1.19-.92,3.11,3.11,0,0,1-.68-.89l-.18-.41c-.09-.2-.18-.41-.29-.61A4.21,4.21,0,0,0,11.5.91c-.1-.12-.23-.27-.34-.42A1.44,1.44,0,0,1,11,0H12.2s0,.05.05.1v0c.11.59.27,1.22.47,1.92a2.61,2.61,0,0,0,.5,1,2.09,2.09,0,0,0,.48.41,2.36,2.36,0,0,0,.91.35h.08a.52.52,0,0,0,.51-.47,2.17,2.17,0,0,0,0-.57v-.1a4.45,4.45,0,0,1,.2-1.86,3.55,3.55,0,0,1,.3-.58l0,0a.32.32,0,0,1,.1-.13H17a.71.71,0,0,1,0,.14s0,.08,0,.13a6.47,6.47,0,0,0,.08,1,.89.89,0,0,1-.1.6,10.45,10.45,0,0,0-.46,1V3l0,.1A6,6,0,0,1,15.9,4.2a1.29,1.29,0,0,1-.36.4.67.67,0,0,1-.45.16m0,0a.79.79,0,0,0,.48-.16,2.14,2.14,0,0,0,.37-.42A7.26,7.26,0,0,0,16.51,3,10,10,0,0,1,17,1.93a.89.89,0,0,0,.11-.62,6.07,6.07,0,0,1-.08-1c0-.1,0-.21,0-.31H15.81c-.07,0-.1.13-.15.2a3.32,3.32,0,0,0-.31.59,4.6,4.6,0,0,0-.2,1.88,2.35,2.35,0,0,1,0,.65.48.48,0,0,1-.47.44h-.07a2.26,2.26,0,0,1-.9-.35,2.22,2.22,0,0,1-.47-.4A2.49,2.49,0,0,1,12.76,2c-.18-.63-.35-1.26-.47-1.91,0-.06,0-.12-.08-.15h-1.3a1.55,1.55,0,0,0,.22.55c.11.15.22.29.34.43a4.41,4.41,0,0,1,.53.75c.17.33.3.68.46,1a3.13,3.13,0,0,0,.69.91,11.58,11.58,0,0,0,1.2.92,1.36,1.36,0,0,0,.5.24,1,1,0,0,0,.24,0Z"/><path class="cls-9" d="M25,15v0H22.7a.79.79,0,0,1,.38-.39,3.12,3.12,0,0,1,.59-.19l.17,0a2.6,2.6,0,0,0,.44-.16,1.12,1.12,0,0,0,.64-.81,1.85,1.85,0,0,0-.26-1.5,1.31,1.31,0,0,0-.44-.39A4.53,4.53,0,0,0,23.13,11L23,10.93a4.18,4.18,0,0,1-.6-.19,1,1,0,0,1-.66-.83A2.5,2.5,0,0,1,22,8.1,2.63,2.63,0,0,1,23,7.26l.69-.36.5-.25a4.23,4.23,0,0,0,.68-.46l.09-.09A.38.38,0,0,1,25,6v1.9H25l-.18,0a3,3,0,0,0-.6-.11H23.9a1.84,1.84,0,0,0-1.22.39,1.4,1.4,0,0,0-.55,1.08,1.09,1.09,0,0,0,.69,1.13,2.64,2.64,0,0,0,1.74.13l.25-.08.15-.06H25v4.59h0v0m0,0c.06,0,.07,0,.07-.09V10.31a.05.05,0,0,0-.05,0l-.07,0c-.13,0-.26.1-.4.13a2.59,2.59,0,0,1-1.72-.13,1.06,1.06,0,0,1-.66-1.08,1.39,1.39,0,0,1,.53-1.06,1.84,1.84,0,0,1,1.2-.39l.28,0a5,5,0,0,1,.77.15H25a.06.06,0,0,0,.06,0v-2c-.1.05-.16.16-.25.23a3.41,3.41,0,0,1-.67.45L23,7.23a2.5,2.5,0,0,0-.95.85,2.55,2.55,0,0,0-.35,1.83,1,1,0,0,0,.68.87,7.75,7.75,0,0,0,.78.24,4.62,4.62,0,0,1,1.08.44,1.31,1.31,0,0,1,.43.38,1.86,1.86,0,0,1,.26,1.47,1.09,1.09,0,0,1-.63.79,3.12,3.12,0,0,1-.43.15,4,4,0,0,0-.76.24.75.75,0,0,0-.43.46H25Z"/><path class="cls-9" d="M.59,5.21a3.54,3.54,0,0,1-.48,0V4.64H.19l.17,0a2.73,2.73,0,0,0,.5.06h0A1.24,1.24,0,0,0,2,4a1.8,1.8,0,0,0,.19-.79,2.79,2.79,0,0,0-.17-1,1.12,1.12,0,0,0-.66-.67,2,2,0,0,0-.69-.14H.18a.08.08,0,0,1-.07,0V.68a3.94,3.94,0,0,1,.47,0H.89A4,4,0,0,1,2,.79.75.75,0,0,1,2.33,1a.8.8,0,0,1,.23.53c0,.19,0,.38,0,.56s0,.18,0,.28a4.31,4.31,0,0,1,0,.8A2.17,2.17,0,0,1,1.56,5a1.56,1.56,0,0,1-.77.21H.59m0,0H.8A1.53,1.53,0,0,0,1.58,5,2.21,2.21,0,0,0,2.65,3.14a5.48,5.48,0,0,0,0-.81c0-.28,0-.55-.06-.83A.89.89,0,0,0,2.36.94.78.78,0,0,0,2,.75,4.29,4.29,0,0,0,.89.62H.58a4.43,4.43,0,0,0-.51,0v.69a.15.15,0,0,0,.11,0h0l.44,0a1.9,1.9,0,0,1,.67.13A1.11,1.11,0,0,1,2,2.17a2.81,2.81,0,0,1,.17,1A1.69,1.69,0,0,1,2,4a1.17,1.17,0,0,1-1.08.7h0A4.76,4.76,0,0,1,.2,4.59H.15a.09.09,0,0,0-.08,0v.61a4.61,4.61,0,0,0,.52,0Z"/><path class="cls-10" d="M25,1.13a2.85,2.85,0,0,0-.69-.49L23.9.47,23.71.4l-.07,0a2.35,2.35,0,0,1-.4-.18A1.5,1.5,0,0,1,23,0h2V1.13m0,.1V0c0-.07,0-.07-.07-.07H22.93a1.24,1.24,0,0,0,.29.27,2.18,2.18,0,0,0,.47.21c.21.08.43.14.63.24a2.69,2.69,0,0,1,.75.55Z"/><path class="cls-8" d="M3.57.11v0l-.19,0L3.29,0h.62a1,1,0,0,1-.34.07v0m0,0A.88.88,0,0,0,4.06,0H3.2a.31.31,0,0,0,.17.13l.2,0Z"/><path class="cls-11" d="M20.34,3.36v0h-.12a1.35,1.35,0,0,1-.87-.53l-.18-.26a.55.55,0,0,1-.08-.38c0-.12.12-.18.22-.23a1.7,1.7,0,0,1,.76-.18,1.18,1.18,0,0,1,.67.19A.85.85,0,0,1,20.94,3a.66.66,0,0,1-.6.33v0m0,0A.71.71,0,0,0,21,3a.89.89,0,0,0-.22-1.12,1.13,1.13,0,0,0-.68-.2,1.79,1.79,0,0,0-.79.18.4.4,0,0,0-.23.26.54.54,0,0,0,.07.41,2.48,2.48,0,0,0,.19.26,1.41,1.41,0,0,0,.9.55Z"/><path class="cls-12" d="M14.45,11.05a.45.45,0,0,1-.35-.22l-.16-.23c-.15-.22-.31-.45-.48-.66a7,7,0,0,0-.64-.68L12.49,9a5.24,5.24,0,0,1-.5-.44A2.24,2.24,0,0,1,11.61,8a1.24,1.24,0,0,1-.1-.2,4.44,4.44,0,0,0-.3-.57,1.65,1.65,0,0,0-.85-.69L10,6.36c-.18-.06-.36-.11-.53-.18a2,2,0,0,1-.77-.48,1.92,1.92,0,0,1-.47-1,1.53,1.53,0,0,1,.2-1,3.21,3.21,0,0,1,.3-.4,8,8,0,0,0,.7-1,6.25,6.25,0,0,1,.36-.53.8.8,0,0,1,.65-.34.67.67,0,0,1,.24,0,1.78,1.78,0,0,1,1,.83c.07.12.13.24.19.36s.22.41.35.6a4.94,4.94,0,0,0,.79.84l.08.07c.26.23.53.46.78.71l.06,0a4.4,4.4,0,0,0,.67.54,1.56,1.56,0,0,0,.82.24,1.33,1.33,0,0,0,.28,0,.86.86,0,0,0,.56-.39c.06-.09.11-.19.18-.32l.07-.16a7.69,7.69,0,0,1,.47-.9,2,2,0,0,1,.59-.62,1.17,1.17,0,0,1,.6-.19,1.09,1.09,0,0,1,.51.14l.48.29.34.19a1.68,1.68,0,0,0,.86.25,1.28,1.28,0,0,0,1.23-.68,1.52,1.52,0,0,0,.15-.61,2.3,2.3,0,0,0-.06-.76.94.94,0,0,0-.72-.68,3.5,3.5,0,0,0-.64-.08h-.41A3.23,3.23,0,0,1,19.18,1a1.41,1.41,0,0,1-.9-.76,2.29,2.29,0,0,1-.1-.23l0,0h.78a.1.1,0,0,1,.06,0,.89.89,0,0,0,.58.42,2,2,0,0,0,.53.08,2.2,2.2,0,0,0,.74-.14.66.66,0,0,0,.36-.34A.14.14,0,0,1,21.28,0h.77s0,.06,0,.1a.92.92,0,0,0,.66.76l.34.11.37.12A2.21,2.21,0,0,1,24.61,2c.08.12.16.24.25.35l.09.14a.19.19,0,0,1,.05.1l0,.07V4a9.77,9.77,0,0,0-1,1c-.17.19-.33.39-.48.59l-.17.2a7.56,7.56,0,0,1-.7.77l-.14.13a6.61,6.61,0,0,0-.82.85,3.66,3.66,0,0,0-.65,1.58l0,.17a2.84,2.84,0,0,1-.15.64.38.38,0,0,1-.33.27l-.13,0a.88.88,0,0,1-.56-.48,2.19,2.19,0,0,1-.22-.88,4.21,4.21,0,0,0-.42-1.7A2,2,0,0,0,18,6a1.79,1.79,0,0,0-.51-.07,2.12,2.12,0,0,0-.44,0,.76.76,0,0,0-.62.71,7.3,7.3,0,0,0-.05.87,4.45,4.45,0,0,1-.44,2l-.06.12a4.78,4.78,0,0,1-.44.8,1.5,1.5,0,0,1-.83.6.32.32,0,0,1-.14,0m0,0,.16,0a1.67,1.67,0,0,0,.85-.61A6.34,6.34,0,0,0,16,9.52a4.48,4.48,0,0,0,.45-2,6.35,6.35,0,0,1,.05-.87A.72.72,0,0,1,17,6a2.28,2.28,0,0,1,.44,0A1.73,1.73,0,0,1,18,6,2,2,0,0,1,19.2,7.1a4.21,4.21,0,0,1,.42,1.68,2.34,2.34,0,0,0,.22.9,1,1,0,0,0,.59.5l.14,0a.41.41,0,0,0,.37-.29,4.73,4.73,0,0,0,.18-.83,3.6,3.6,0,0,1,.64-1.55,7.41,7.41,0,0,1,1-1,8.53,8.53,0,0,0,.7-.77c.22-.27.43-.54.65-.79a8.32,8.32,0,0,1,1-1V2.63s0-.12-.08-.18L24.64,2a2.26,2.26,0,0,0-1.16-.91L22.77.82A.88.88,0,0,1,22.13.1.2.2,0,0,0,22.07,0h-.8a.17.17,0,0,0-.1.1.57.57,0,0,1-.34.32,2,2,0,0,1-.72.14,1.93,1.93,0,0,1-.52-.08A.9.9,0,0,1,19,0,.23.23,0,0,0,18.94,0H18.1c0,.11.09.22.15.33a1.38,1.38,0,0,0,.92.78,4.72,4.72,0,0,0,1,.07,4.52,4.52,0,0,1,.75.09.87.87,0,0,1,.69.65,2.12,2.12,0,0,1,.06.75,1.36,1.36,0,0,1-.15.59,1.23,1.23,0,0,1-1.19.66h0a1.67,1.67,0,0,1-.84-.24c-.28-.16-.54-.33-.82-.48A1.1,1.1,0,0,0,18.13,3a1.2,1.2,0,0,0-.63.2,2.18,2.18,0,0,0-.59.62,9,9,0,0,0-.55,1.07,2.27,2.27,0,0,1-.17.31.81.81,0,0,1-.53.38l-.28,0a1.54,1.54,0,0,1-.8-.23,5,5,0,0,1-.72-.59c-.28-.27-.58-.52-.87-.78a5.59,5.59,0,0,1-.78-.83c-.21-.31-.35-.65-.54-1a1.81,1.81,0,0,0-1-.85.82.82,0,0,0-.26,0,.84.84,0,0,0-.68.36,6.18,6.18,0,0,0-.36.53,10,10,0,0,1-.7,1,2,2,0,0,0-.3.4,1.55,1.55,0,0,0-.21,1,2,2,0,0,0,.48,1.07,2.06,2.06,0,0,0,.78.49c.31.12.64.19.95.3a1.65,1.65,0,0,1,.82.68,7,7,0,0,1,.4.77,2.27,2.27,0,0,0,.39.58c.26.28.56.49.83.74a6.86,6.86,0,0,1,.64.68c.23.28.43.58.64.88a.47.47,0,0,0,.38.24Z"/><path class="cls-9" d="M3.6,10.85a2.06,2.06,0,0,1-1-.32c-.18-.11-.35-.24-.52-.36l-.38-.26A4,4,0,0,0,.18,9.35H.11v-1l.74.39.43.22a5.23,5.23,0,0,1,1,.76,2.94,2.94,0,0,0,.91.62,1.18,1.18,0,0,0,.36.06.94.94,0,0,0,.89-.72,2.18,2.18,0,0,0,0-1.22A4.83,4.83,0,0,1,4.36,7a13.72,13.72,0,0,1,.17-1.65,2.56,2.56,0,0,1,.33-.81L5,4.36a5.56,5.56,0,0,0,.45-.79c.1-.25.19-.5.29-.74l.06-.17a1.65,1.65,0,0,1,.92-1A3.56,3.56,0,0,0,7.8,1,3.78,3.78,0,0,0,8.54,0l0,0H9.63A1.18,1.18,0,0,1,9.2.63L9.07.74a5.88,5.88,0,0,0-.92.82,8.94,8.94,0,0,0-.56.74,3.56,3.56,0,0,1-.78.83A4.93,4.93,0,0,0,6,4l-.58.72a3.14,3.14,0,0,0-.63,1.5A6.48,6.48,0,0,0,4.72,7,4,4,0,0,0,4.86,8.1a3.51,3.51,0,0,1,.12,1,2.33,2.33,0,0,1-.5,1.39,1,1,0,0,1-.68.36l-.2,0m0,0,.2,0a1,1,0,0,0,.71-.37A2.45,2.45,0,0,0,5,9.09a3.38,3.38,0,0,0-.12-1A3.89,3.89,0,0,1,4.76,7a6.31,6.31,0,0,1,.07-.76,3.15,3.15,0,0,1,.62-1.48c.19-.25.39-.49.58-.73a5.25,5.25,0,0,1,.8-.83,3.28,3.28,0,0,0,.79-.83,8.12,8.12,0,0,1,.56-.75,8.25,8.25,0,0,1,1-.92A1.24,1.24,0,0,0,9.68,0H8.53s0,0,0,.05a4.1,4.1,0,0,1-.74.91,3.69,3.69,0,0,1-1.11.73,1.69,1.69,0,0,0-.94,1c-.11.3-.23.6-.35.9a5.68,5.68,0,0,1-.55,1,2.57,2.57,0,0,0-.33.82A13,13,0,0,0,4.32,7a4.83,4.83,0,0,0,.14,1.47,2,2,0,0,1,0,1.2.9.9,0,0,1-.85.69,1.06,1.06,0,0,1-.34-.06,2.61,2.61,0,0,1-.9-.61,5.5,5.5,0,0,0-1-.76C.89,8.69.47,8.5.07,8.26V9.37l.1,0a3.92,3.92,0,0,1,1.47.55c.3.2.58.43.9.62a2,2,0,0,0,1.06.33Z"/><path class="cls-12" d="M.11,6.75V5.91A3.51,3.51,0,0,0,1.9,5.35a3,3,0,0,0,1.22-2c0-.17,0-.34,0-.5s.05-.48.09-.71a1.73,1.73,0,0,1,.45-1A3.22,3.22,0,0,1,4.27.74l.05,0A2.18,2.18,0,0,0,5,.07a.16.16,0,0,0,0-.07h.6A1.5,1.5,0,0,1,5,1l-.16.1a4.3,4.3,0,0,0-.57.41,1.75,1.75,0,0,0-.43.71,4.68,4.68,0,0,0-.2.9l0,.22A3.12,3.12,0,0,1,3.2,4.45a5.2,5.2,0,0,1-.75.86l0,0A4.1,4.1,0,0,1,1.5,6l-.27.13c-.37.19-.74.39-1.1.62h0m0,.06.08,0c.44-.28.91-.51,1.37-.75a4,4,0,0,0,.94-.67,5.47,5.47,0,0,0,.77-.89,2.9,2.9,0,0,0,.38-1.15,5.09,5.09,0,0,1,.23-1.11,1.66,1.66,0,0,1,.42-.7A5.88,5.88,0,0,1,5,1a1.5,1.5,0,0,0,.73-1H5A.36.36,0,0,1,5,.05,2.25,2.25,0,0,1,4.3.67a4.44,4.44,0,0,0-.62.45,1.76,1.76,0,0,0-.46,1c-.07.4-.09.81-.14,1.21a3,3,0,0,1-1.21,2,3.49,3.49,0,0,1-1.8.55v.94Z"/><path class="cls-13" d="M5.85,14.91A3.79,3.79,0,0,1,6.2,14l.27-.49.23-.41.11-.21c.11-.2.22-.41.35-.61A1.82,1.82,0,0,1,8,11.48a1,1,0,0,1,.41-.08,1,1,0,0,1,.91.6,2.61,2.61,0,0,1,.24.9c0,.18,0,.37,0,.55s0,.39,0,.58.05.42.08.62,0,.18,0,.26H9.17v-.7c0-.16,0-.32,0-.47a4,4,0,0,0,0-.6A1.82,1.82,0,0,0,9,12.22a.74.74,0,0,0-.63-.36.84.84,0,0,0-.47.15,1.51,1.51,0,0,0-.54.64l-.21.42c-.2.41-.42.83-.64,1.25a2.19,2.19,0,0,0-.21.59H5.85m0,0h.5a1.9,1.9,0,0,1,.21-.62c.29-.54.56-1.1.84-1.66A1.55,1.55,0,0,1,7.88,12a.86.86,0,0,1,.45-.13.68.68,0,0,1,.6.34,1.72,1.72,0,0,1,.24.89c0,.36,0,.72,0,1.07V15h.72c0-.3-.1-.61-.13-.92s-.06-.76-.09-1.14A2.92,2.92,0,0,0,9.39,12a1,1,0,0,0-1-.62,1.12,1.12,0,0,0-.43.08,1.89,1.89,0,0,0-.89.79c-.17.26-.31.54-.46.82l-.49.9a3.87,3.87,0,0,0-.37,1Z"/><path class="cls-10" d="M18.25,14.91a1.59,1.59,0,0,1,1.28-1l.32,0,.51,0h.23a5.73,5.73,0,0,1,.58.07c.43.07.48.12.58.57a1.76,1.76,0,0,1,0,.34H21a.41.41,0,0,1-.13-.1.79.79,0,0,0-.17-.14,1.6,1.6,0,0,0-.78-.22,1.3,1.3,0,0,0-.65.18.7.7,0,0,0-.22.19.28.28,0,0,1-.1.09h-.74m-.06,0H19a.25.25,0,0,0,.12-.11.72.72,0,0,1,.21-.18,1.27,1.27,0,0,1,.63-.17,1.61,1.61,0,0,1,.77.22c.11.06.18.18.3.24h.8a1.74,1.74,0,0,0,0-.39c-.09-.47-.16-.53-.6-.6a6.53,6.53,0,0,0-.76-.08,5.46,5.46,0,0,0-.57,0,1.72,1.72,0,0,0-.32,0A1.64,1.64,0,0,0,18.19,15Z"/><path class="cls-10" d="M.14,14.92h0s0,0,0,0a1.55,1.55,0,0,0,0-.22v-.05H.44l.35,0h0a.89.89,0,0,1,.79.32H.14m0,0H1.67a.93.93,0,0,0-.87-.4h0c-.24,0-.47,0-.71,0h0c0,.1,0,.21,0,.31s0,.07.07.07Z"/><path class="cls-13" d="M22.49,13.74v0h-.23a.42.42,0,0,1-.37-.31,3,3,0,0,1-.11-.57.31.31,0,0,0,0-.1.91.91,0,0,1,0-.23,1.63,1.63,0,0,1,.06-.5.5.5,0,0,1,.47-.46.58.58,0,0,1,.19,0,1.82,1.82,0,0,1,.53.1,1.37,1.37,0,0,1,.64.37,1.09,1.09,0,0,1,.31.83.81.81,0,0,1-.33.59.91.91,0,0,1-.42.2,2.87,2.87,0,0,1-.72.11v0m0,0a2.58,2.58,0,0,0,.73-.11,1.19,1.19,0,0,0,.44-.21,1,1,0,0,0,0-1.48,1.57,1.57,0,0,0-.66-.38,1.71,1.71,0,0,0-.54-.1.71.71,0,0,0-.2,0c-.32.07-.41.16-.5.49a2,2,0,0,0-.06.51,1.94,1.94,0,0,0,0,.33,2.83,2.83,0,0,0,.11.58.46.46,0,0,0,.41.34Z"/><path class="cls-9" d="M13.67,14a.69.69,0,0,1-.6-.47v0a.69.69,0,0,1,0-.2,1.19,1.19,0,0,1,.2-.58,1.15,1.15,0,0,1,.49-.49l.12,0c.07,0,.12,0,.17.12a1.54,1.54,0,0,1,.14.52v0a1.44,1.44,0,0,1-.08.78.5.5,0,0,1-.2.28.31.31,0,0,1-.21.07m0,0A.39.39,0,0,0,13.9,14a.62.62,0,0,0,.22-.31,1.45,1.45,0,0,0,.07-.8,1.5,1.5,0,0,0-.15-.55.23.23,0,0,0-.2-.15.43.43,0,0,0-.14,0,1.29,1.29,0,0,0-.51.5,1.34,1.34,0,0,0-.2.61.85.85,0,0,0,0,.23.72.72,0,0,0,.64.5Z"/><path class="cls-12" d="M3.6,10.36a1,1,0,0,1-.29,0,2.14,2.14,0,0,1-.84-.52A6.66,6.66,0,0,0,.74,8.62,5.67,5.67,0,0,1,.2,8.34L.11,8.25V6.82a.53.53,0,0,1,.11-.09c.41-.25.85-.48,1.22-.67a4.32,4.32,0,0,0,1-.68,6.53,6.53,0,0,0,.69-.76,2.33,2.33,0,0,0,.43-1c0-.15.05-.31.08-.46a5.09,5.09,0,0,1,.12-.66,1.94,1.94,0,0,1,.43-.9,2.59,2.59,0,0,1,.52-.42l.11-.07A2.48,2.48,0,0,0,5.27.76,1.35,1.35,0,0,0,5.68.09.19.19,0,0,1,5.73,0h.83a.19.19,0,0,1,.07.08.32.32,0,0,0,.3.2A.22.22,0,0,0,7,.26.64.64,0,0,0,7.33.1h0A.38.38,0,0,1,7.48,0h1s0,0,0,.06l0,0a2.19,2.19,0,0,1-.3.42A4,4,0,0,1,7,1.51l-.07,0-.26.12a1.74,1.74,0,0,0-1,1.09l0,.06c-.09.25-.18.5-.29.74a6.7,6.7,0,0,1-.49.88,2.84,2.84,0,0,0-.45,1.32c0,.34-.08.75-.1,1.15a5.11,5.11,0,0,0,.12,1.48,2.16,2.16,0,0,1,.09.72,1.49,1.49,0,0,1-.33,1,.81.81,0,0,1-.61.29m0,0a.82.82,0,0,0,.63-.3,1.51,1.51,0,0,0,.35-1,2.31,2.31,0,0,0-.09-.74,4.83,4.83,0,0,1-.12-1.47c0-.38.06-.76.1-1.14a2.84,2.84,0,0,1,.44-1.31,5.87,5.87,0,0,0,.5-.88c.12-.27.21-.54.31-.81a1.71,1.71,0,0,1,.92-1.06L7,1.55A3.85,3.85,0,0,0,8.2.53,2.53,2.53,0,0,0,8.51.11S8.58,0,8.53,0H7.47a.57.57,0,0,0-.16.11A.71.71,0,0,1,7,.23h-.1A.3.3,0,0,1,6.66.06.18.18,0,0,0,6.57,0H5.71a.19.19,0,0,0-.07.12,1.44,1.44,0,0,1-.39.65,3.73,3.73,0,0,1-.57.41,2.39,2.39,0,0,0-.53.42,2.07,2.07,0,0,0-.44.92c-.09.37-.13.75-.2,1.12a2.4,2.4,0,0,1-.42,1,7,7,0,0,1-.69.75,3.91,3.91,0,0,1-1,.68C1,6.24.6,6.45.2,6.7a.45.45,0,0,0-.13.11V8.26a.29.29,0,0,0,.11.11,4.74,4.74,0,0,0,.54.29A6.2,6.2,0,0,1,2.44,9.82a2.26,2.26,0,0,0,.86.53,1.11,1.11,0,0,0,.3.05Z"/><path class="cls-13" d="M6.31,14.91s0,0,0-.08a3.59,3.59,0,0,1,.32-.75c.22-.4.41-.77.58-1.15a2.58,2.58,0,0,1,.41-.67,1,1,0,0,1,.7-.36h.12a.75.75,0,0,1,.55.41,1.77,1.77,0,0,1,.18.79,5.3,5.3,0,0,1,0,.69,1,1,0,0,1,0,.17,4.69,4.69,0,0,0,0,.53v.32a.2.2,0,0,1,0,.09H8.29a.06.06,0,0,1,0-.06A4.37,4.37,0,0,1,8.41,14a6.63,6.63,0,0,0,.13-.67.86.86,0,0,0-.07-.46.27.27,0,0,0-.24-.18.53.53,0,0,0-.16,0,.6.6,0,0,0-.21.24,1.8,1.8,0,0,0-.21.46,6,6,0,0,1-.51,1.08c0,.09-.09.18-.13.28a.13.13,0,0,1-.06.08H6.31m0,0H7a.2.2,0,0,0,.09-.11c0-.09.08-.18.13-.27a7.1,7.1,0,0,0,.51-1.08,1.89,1.89,0,0,1,.2-.46.53.53,0,0,1,.2-.22.25.25,0,0,1,.14,0,.23.23,0,0,1,.2.15.77.77,0,0,1,.07.45c0,.22-.08.44-.13.67a4.28,4.28,0,0,0-.13.81.09.09,0,0,0,0,.1h.86s0-.09,0-.15c0-.27,0-.55,0-.83a8.24,8.24,0,0,0,0-.86A1.75,1.75,0,0,0,9,12.3a.76.76,0,0,0-.57-.43H8.32a.93.93,0,0,0-.73.38,2.59,2.59,0,0,0-.42.68c-.17.39-.37.77-.57,1.14a3.43,3.43,0,0,0-.33.76s0,.1,0,.13Z"/><path class="cls-9" d="M20.08.56v0a1.63,1.63,0,0,1-.45-.06A.91.91,0,0,1,19,0h2.21a.75.75,0,0,1-.63.47,2.29,2.29,0,0,1-.5.05v0m0,0a2.94,2.94,0,0,0,.51-.05A.79.79,0,0,0,21.27,0H18.94a1,1,0,0,0,.68.54,1.46,1.46,0,0,0,.46.06Z"/><path class="cls-9" d="M19.07,14.91a1,1,0,0,1,.82-.42H20a1.43,1.43,0,0,1,.88.29.69.69,0,0,1,.11.13H19.07M19,15h2a.74.74,0,0,0-.16-.2,1.42,1.42,0,0,0-.9-.3h-.08A1,1,0,0,0,19,15Z"/><path class="cls-13" d="M14.46,9.55a1.3,1.3,0,0,1-.73-.3,10.57,10.57,0,0,1-.83-.67l-.12-.11a3.46,3.46,0,0,1-.89-1.26,3,3,0,0,0-.54-.86,2.31,2.31,0,0,0-.87-.57l-.34-.12a2.8,2.8,0,0,1-.46-.16.89.89,0,0,1-.59-.66,1,1,0,0,1,.11-.62A7.78,7.78,0,0,1,10,2.85a1,1,0,0,1,.43-.35.57.57,0,0,1,.18,0,.65.65,0,0,1,.4.17,1.66,1.66,0,0,1,.31.38V3a4.71,4.71,0,0,0,1.08,1.13,7.84,7.84,0,0,1,1.14,1l.47.51a3.86,3.86,0,0,0,1,.75l.32.19a1.06,1.06,0,0,1,.45.7,1.92,1.92,0,0,1-.51,1.81,1,1,0,0,1-.74.37h0m0,0h0a1,1,0,0,0,.77-.38,2,2,0,0,0,.52-1.85,1.09,1.09,0,0,0-.47-.72,3.62,3.62,0,0,0-.33-.2,3.74,3.74,0,0,1-1-.74c-.15-.16-.31-.33-.46-.51a8.18,8.18,0,0,0-1.14-1.06A4.39,4.39,0,0,1,11.33,3,1.45,1.45,0,0,0,11,2.61a.66.66,0,0,0-.42-.18.43.43,0,0,0-.19,0,1,1,0,0,0-.45.36A7.7,7.7,0,0,0,9.16,4.2a1.11,1.11,0,0,0-.11.65.93.93,0,0,0,.62.69c.26.11.53.18.8.28a2.35,2.35,0,0,1,.85.55,3.17,3.17,0,0,1,.53.86,3.61,3.61,0,0,0,.91,1.27,12.05,12.05,0,0,0,1,.79,1.41,1.41,0,0,0,.75.3Z"/><path class="cls-8" d="M20.45,7.93a.18.18,0,0,1-.16-.09A1.74,1.74,0,0,1,20,7.37l0-.07c-.22-.4-.41-.72-.61-1a2.55,2.55,0,0,0-1.29-1A1.5,1.5,0,0,1,17.66,5a.43.43,0,0,1-.17-.48.86.86,0,0,1,.77-.64,1.67,1.67,0,0,1,.6.17,3.3,3.3,0,0,0,.87.29l.5,0a2.6,2.6,0,0,0,1.13-.23A1.67,1.67,0,0,0,22.24,3l.06-.25a4.05,4.05,0,0,1,.12-.47.62.62,0,0,1,.63-.49l.2,0a1.3,1.3,0,0,1,1,1.17,1.23,1.23,0,0,1-.26.85c-.2.29-.42.58-.63.86l-.46.6A11.54,11.54,0,0,1,22,6.37l-.24.25c-.27.29-.52.6-.75.89l-.05.06a1,1,0,0,1-.33.33l-.13,0m0,0a.34.34,0,0,0,.15,0,1.24,1.24,0,0,0,.39-.4c.24-.3.49-.6.75-.88A16.19,16.19,0,0,0,22.9,5.34c.35-.5.75-1,1.09-1.47A1.28,1.28,0,0,0,24.25,3a1.36,1.36,0,0,0-1-1.21.76.76,0,0,0-.21,0,.67.67,0,0,0-.67.51c-.07.24-.12.49-.18.73a1.61,1.61,0,0,1-.86,1.14,2.51,2.51,0,0,1-1.11.23,4.19,4.19,0,0,1-.5,0,3.26,3.26,0,0,1-.85-.28,1.7,1.7,0,0,0-.62-.18.9.9,0,0,0-.81.67.49.49,0,0,0,.18.52,1.66,1.66,0,0,0,.4.2,2.54,2.54,0,0,1,1.26,1c.22.33.42.67.61,1a2.9,2.9,0,0,0,.36.55.24.24,0,0,0,.19.1Z"/><path class="cls-13" d="M3.75,14.91A3.9,3.9,0,0,0,3,13.47a4.49,4.49,0,0,1-.44-.64,1.14,1.14,0,0,1-.14-.43A.39.39,0,0,1,2.63,12a1.52,1.52,0,0,1,.53-.12l.38,0a4.14,4.14,0,0,0,.86-.12A1.38,1.38,0,0,0,5,11.39,1.3,1.3,0,0,0,5.31,11,7.45,7.45,0,0,0,5.75,9.7l0-.13A5.28,5.28,0,0,0,6,8.65a2,2,0,0,0,0-.68l-.06-.23c0-.18-.08-.36-.11-.53a1.84,1.84,0,0,1,.09-1.08,1,1,0,0,1,.8-.65h0a.74.74,0,0,1,.51.27l.36.39a1.29,1.29,0,0,0,.16.17A3.3,3.3,0,0,0,8.6,7l.2.11.55.31a1.77,1.77,0,0,1,.41.36,1,1,0,0,1,.18.7,2.71,2.71,0,0,1-.22.92,1.1,1.1,0,0,1-.72.69,5.72,5.72,0,0,0-1.29.5,5.66,5.66,0,0,0-.85.63,6.82,6.82,0,0,0-1.21,1.64c-.21.36-.4.74-.58,1.13a4.23,4.23,0,0,0-.32.92h-1m0,0H4.78A4.62,4.62,0,0,1,5.1,14c.18-.38.38-.76.59-1.12a6.31,6.31,0,0,1,1.2-1.63,4.55,4.55,0,0,1,.84-.62A5.4,5.4,0,0,1,9,10.13a1.09,1.09,0,0,0,.74-.72A2.89,2.89,0,0,0,10,8.49a1.09,1.09,0,0,0-.19-.73,1.64,1.64,0,0,0-.42-.37c-.24-.15-.5-.28-.75-.42a3.4,3.4,0,0,1-.88-.68c-.17-.19-.34-.39-.52-.57a.86.86,0,0,0-.54-.28h0a1,1,0,0,0-.83.68,1.77,1.77,0,0,0-.1,1.09c0,.26.11.52.17.77a1.88,1.88,0,0,1,0,.67,5.3,5.3,0,0,1-.17.9A7.78,7.78,0,0,1,5.28,11a1.26,1.26,0,0,1-.28.4,1.4,1.4,0,0,1-.61.33,7.25,7.25,0,0,1-1.24.16,1.47,1.47,0,0,0-.54.13.42.42,0,0,0-.27.42,1.14,1.14,0,0,0,.15.45,5.7,5.7,0,0,0,.44.65A3.8,3.8,0,0,1,3.72,15Z"/><path class="cls-8" d="M14.72,3.72h-.06a2.28,2.28,0,0,1-1.23-.57,2.78,2.78,0,0,1-.78-1.48l-.07-.26C12.46,1,12.34.47,12.26,0h3.5a2.2,2.2,0,0,1-.15.26l-.06.09a2.85,2.85,0,0,0-.36,1.1,4.93,4.93,0,0,0-.06.78l0,.39c0,.11,0,.22,0,.33a.77.77,0,0,1-.18.66.37.37,0,0,1-.28.11m0,0A.42.42,0,0,0,15,3.64.82.82,0,0,0,15.22,3c0-.24,0-.48-.05-.72a4.1,4.1,0,0,1,.06-.78A2.76,2.76,0,0,1,15.59.37,1.62,1.62,0,0,0,15.81,0h-3.6s0,0,0,0c.1.56.25,1.12.39,1.68a2.81,2.81,0,0,0,.79,1.5,2.29,2.29,0,0,0,1.26.58Z"/><path class="cls-8" d="M23.88,10.53a2.4,2.4,0,0,1-1.16-.28,1.12,1.12,0,0,1-.55-1.13,1.54,1.54,0,0,1,1.08-1.26,2.44,2.44,0,0,1,.66-.09,3,3,0,0,1,.81.11L25,8v2.32l-.22.08a2.54,2.54,0,0,1-.45.13,4.23,4.23,0,0,1-.48,0m0,0a3.88,3.88,0,0,0,.48,0,5.83,5.83,0,0,0,.71-.22V7.92l-.34-.08a3.24,3.24,0,0,0-.82-.11,2.63,2.63,0,0,0-.67.09,1.57,1.57,0,0,0-1.11,1.29,1.18,1.18,0,0,0,.57,1.18,2.59,2.59,0,0,0,1.18.28Z"/><path class="cls-8" d="M.85,4.69A2.81,2.81,0,0,1,.4,4.64l-.28,0h0V3.9H.19A5.11,5.11,0,0,0,.72,4H1a.69.69,0,0,0,.58-.71,1.07,1.07,0,0,0-.9-1.16,1.67,1.67,0,0,0-.32,0H.2s-.07,0-.09,0V1.37H.16a3.62,3.62,0,0,1,1,.09,1.18,1.18,0,0,1,.88.94,2.43,2.43,0,0,1,0,1.25,1.24,1.24,0,0,1-1,1l-.23,0m0,0,.23,0a1.3,1.3,0,0,0,1-1,2.38,2.38,0,0,0,0-1.27,1.24,1.24,0,0,0-.91-1,3.92,3.92,0,0,0-1-.09H.07v.81a.16.16,0,0,0,.14,0H.35a1.56,1.56,0,0,1,.31,0,1,1,0,0,1,.87,1.12A.65.65,0,0,1,1,4H.72A4.94,4.94,0,0,1,.2,3.87l-.07,0a.09.09,0,0,0-.06,0v.74l.32.06a2.4,2.4,0,0,0,.46.05Z"/><path class="cls-9" d="M15.54,14.91A1.89,1.89,0,0,1,16,14.2l.08-.07.1,0c.08,0,.11.08.13.13a1,1,0,0,1,0,.3v.38h-.76m-.06,0h.86v-.41a1.09,1.09,0,0,0,0-.32c0-.11-.09-.16-.17-.16l-.12,0-.09.08a1.91,1.91,0,0,0-.45.78Z"/><path class="cls-12" d="M11.12,12.61h0a.26.26,0,0,1-.21-.11,1,1,0,0,1-.16-.78.43.43,0,0,1,.42-.34h0a.4.4,0,0,1,.31.12.55.55,0,0,1,.11.4.89.89,0,0,1-.34.65.25.25,0,0,1-.16.06m0,0a.3.3,0,0,0,.19-.07.94.94,0,0,0,.35-.67c0-.36-.15-.57-.46-.57h0a.47.47,0,0,0-.46.37,1,1,0,0,0,.17.81.28.28,0,0,0,.24.13Z"/><path class="cls-8" d="M17.28,13.06v0h-.05A.21.21,0,0,1,17,12.8a1.78,1.78,0,0,1,.08-.45l0-.15.08-.29a5.61,5.61,0,0,0,.13-.59,5.24,5.24,0,0,0,.07-.73v-.22c0-.37,0-.76,0-1.14,0-.17,0-.34,0-.5s0-.3,0-.45v0a1.85,1.85,0,0,1,.09-.58.39.39,0,0,1,.35-.3.38.38,0,0,1,.22.07.7.7,0,0,1,.24.29,1.57,1.57,0,0,1,.15.65v.49A3.35,3.35,0,0,0,18.63,10a3.9,3.9,0,0,0,.67,1.22l.36.46,0,0a.75.75,0,0,1,.11.2c.08.18.05.27-.13.39a.62.62,0,0,1-.23.07,8.09,8.09,0,0,0-1.26.42,2.44,2.44,0,0,1-.91.23v0m0,0a2.5,2.5,0,0,0,.93-.23,8,8,0,0,1,1.25-.42,1,1,0,0,0,.24-.08c.2-.13.23-.24.15-.44a.82.82,0,0,0-.12-.2l-.4-.51a3.8,3.8,0,0,1-.66-1.2,3.45,3.45,0,0,1-.13-1.12V8.37a1.68,1.68,0,0,0-.15-.67.76.76,0,0,0-.26-.3.38.38,0,0,0-.24-.08.42.42,0,0,0-.39.33,1.92,1.92,0,0,0-.09.63c0,.31,0,.63,0,.94s0,.91,0,1.37a4.62,4.62,0,0,1-.07.73c-.05.29-.14.58-.21.87a2.6,2.6,0,0,0-.11.62.25.25,0,0,0,.24.25Z"/><path class="cls-8" d="M.89,4a2.42,2.42,0,0,1-.65-.13h0l-.1,0V2.18H.3a2.32,2.32,0,0,1,.46,0,1,1,0,0,1,.63.48,1.13,1.13,0,0,1,.11.86A.64.64,0,0,1,.92,4h0m0,0h0a.67.67,0,0,0,.62-.48,1.13,1.13,0,0,0-.77-1.4,2.48,2.48,0,0,0-.47,0H.07V3.88l.13,0a2.29,2.29,0,0,0,.69.14Z"/><path class="cls-8" d="M6.39,10.69c-.14,0-.21-.09-.22-.29a3.3,3.3,0,0,1,.08-.64c0-.21.11-.41.16-.61a5.44,5.44,0,0,0,.15-.54,3,3,0,0,0,0-1.24,1.61,1.61,0,0,1,0-.37c0-.18.09-.29.22-.29a.34.34,0,0,1,.16,0,1.69,1.69,0,0,1,.3.18,7.69,7.69,0,0,0,.81.5l.13.07A2.47,2.47,0,0,1,8.82,8a.68.68,0,0,1,.2.52,1,1,0,0,1-.26.69,3.55,3.55,0,0,1-.64.52l-1,.69,0,0a1.72,1.72,0,0,1-.52.27H6.39m0,.05.13,0a2.07,2.07,0,0,0,.57-.3c.36-.22.7-.46,1.05-.69a3,3,0,0,0,.65-.53,1,1,0,0,0,.27-.71.69.69,0,0,0-.21-.55,2.36,2.36,0,0,0-.63-.47,9,9,0,0,1-.94-.57A3,3,0,0,0,7,6.71a.45.45,0,0,0-.18,0c-.15,0-.26.12-.26.33a1.59,1.59,0,0,0,0,.38,3,3,0,0,1,0,1.22c-.09.39-.22.76-.31,1.15a2.84,2.84,0,0,0-.08.66c0,.21.1.33.26.33Z"/><path class="cls-13" d="M4.16,13.32v0a.4.4,0,0,1-.29-.15c-.14-.14-.15-.17-.15-.28a.25.25,0,0,1,.16-.22l.27,0a.65.65,0,0,1,.19,0,.27.27,0,0,1,.17.13.34.34,0,0,1,0,.26.39.39,0,0,1-.34.27v0m0,0A.43.43,0,0,0,4.54,13a.31.31,0,0,0-.2-.45.62.62,0,0,0-.19,0,1.27,1.27,0,0,0-.28,0,.28.28,0,0,0-.19.26c0,.13,0,.16.16.31a.47.47,0,0,0,.32.16Z"/><path class="cls-8" d="M13.82,2.16l-.08,0a.52.52,0,0,1-.18-.37.34.34,0,0,1,.11-.3.31.31,0,0,1,.12-.05c.08,0,.14.07.2.17a.46.46,0,0,1-.08.52.14.14,0,0,1-.09.05m0,0a.17.17,0,0,0,.12-.06A.52.52,0,0,0,14,1.57a.31.31,0,0,0-.24-.19.25.25,0,0,0-.14.06.49.49,0,0,0,.07.73.19.19,0,0,0,.1,0Z"/><path class="cls-12" d="M23.61,9.8a1.16,1.16,0,0,1-.42-.08.55.55,0,0,1-.36-.5.65.65,0,0,1,.25-.54.92.92,0,0,1,.63-.21h0a1.15,1.15,0,0,1,.84.32.4.4,0,0,1,0,.55,1.3,1.3,0,0,1-1,.46m0,0a1.31,1.31,0,0,0,1-.48.43.43,0,0,0,0-.6,1.15,1.15,0,0,0-.86-.33h0a1,1,0,0,0-.66.22.68.68,0,0,0-.26.58.59.59,0,0,0,.38.52,1.12,1.12,0,0,0,.44.09Z"/><path class="cls-9" d="M7,14.91c.09-.2.19-.39.29-.57l.11-.2c.09-.19.17-.39.24-.58s.07-.19.11-.28A1.27,1.27,0,0,1,8,12.85a.28.28,0,0,1,.19-.09.3.3,0,0,1,.15.05.5.5,0,0,1,.13.25,1.07,1.07,0,0,1,0,.47L8.39,14c0,.18-.08.35-.11.53a3.11,3.11,0,0,1,0,.32v.08H7m0,0H8.27c0-.14,0-.29.05-.43,0-.33.15-.65.2-1a1.35,1.35,0,0,0,0-.49.46.46,0,0,0-.15-.27.27.27,0,0,0-.17-.06.32.32,0,0,0-.22.1,1.41,1.41,0,0,0-.27.44,6.45,6.45,0,0,1-.35.86A9.12,9.12,0,0,0,7,15Z"/><path class="cls-8" d="M6.93.25A.31.31,0,0,1,6.64,0h.75a.74.74,0,0,1-.32.22l-.14,0m0,0a.44.44,0,0,0,.15,0A.77.77,0,0,0,7.47,0h-.9L6.6,0a.35.35,0,0,0,.33.26Z"/><path class="cls-8" d="M3.46,9.47h0l-.12,0a1.74,1.74,0,0,1-.58-.36c-.26-.23-.54-.43-.81-.63l-.48-.35a1.88,1.88,0,0,1-.24-.25.68.68,0,0,1,.06-1,1.76,1.76,0,0,1,.39-.34l1.18-.85.05,0a1.6,1.6,0,0,1,.41-.21l.12,0c.13,0,.22.07.27.23a1.82,1.82,0,0,1,.11.77c0,.26,0,.52,0,.78v.19a5,5,0,0,0,0,.84c0,.06,0,.12,0,.18a2,2,0,0,1,0,.64.52.52,0,0,1-.07.21.34.34,0,0,1-.29.18m0,0a.38.38,0,0,0,.32-.19.49.49,0,0,0,.08-.23,3.29,3.29,0,0,0,0-.83,4.72,4.72,0,0,1,0-.84c0-.33,0-.65,0-1a2.1,2.1,0,0,0-.11-.79.33.33,0,0,0-.31-.25l-.13,0a1.68,1.68,0,0,0-.42.22l-1.23.88a2,2,0,0,0-.4.36.73.73,0,0,0-.06,1,1.18,1.18,0,0,0,.25.25c.43.33.88.62,1.29,1a1.79,1.79,0,0,0,.59.37l.13,0Z"/><path class="cls-8" d="M14.31,8.63h0a1.17,1.17,0,0,1-.47-.15A3.16,3.16,0,0,1,13,7.86a2.29,2.29,0,0,1-.56-.93,5.4,5.4,0,0,0-.83-1.5,1.26,1.26,0,0,1-.18-.32c-.06-.12-.08-.2,0-.29a.26.26,0,0,1,.24-.12h0a1.19,1.19,0,0,1,.58.2,3.14,3.14,0,0,1,.82.75,15.77,15.77,0,0,0,1.06,1.19l.19.18.33.33a1.14,1.14,0,0,1,.24.41.67.67,0,0,1-.07.53.58.58,0,0,1-.39.3h0l-.11,0m0,0,.14,0a.71.71,0,0,0,.48-.89,1.06,1.06,0,0,0-.24-.41c-.17-.18-.35-.34-.52-.51-.37-.38-.72-.79-1.06-1.2a3.34,3.34,0,0,0-.83-.76,1.44,1.44,0,0,0-.6-.21h0a.3.3,0,0,0-.27.14.3.3,0,0,0,0,.33,1.57,1.57,0,0,0,.19.33A5.15,5.15,0,0,1,12.39,7a2.58,2.58,0,0,0,.57.94,3.42,3.42,0,0,0,.84.63,1.17,1.17,0,0,0,.48.15Z"/><path class="cls-8" d="M20.55,6.57v0c-.14,0-.28-.09-.46-.3a1.51,1.51,0,0,1-.29-.61A.39.39,0,0,1,20,5.18,1.64,1.64,0,0,1,20.65,5a8.51,8.51,0,0,1,.9-.11h0l.18,0a.17.17,0,0,1,.12.08.21.21,0,0,1,0,.16,1.33,1.33,0,0,1-.2.45,2.84,2.84,0,0,1-.8.82.66.66,0,0,1-.36.14v0m0,0a.71.71,0,0,0,.39-.15,3,3,0,0,0,.81-.83,1.26,1.26,0,0,0,.2-.46.23.23,0,0,0-.18-.29l-.19,0h0a6.56,6.56,0,0,0-.89.11,2,2,0,0,0-.68.21.42.42,0,0,0-.21.49,1.5,1.5,0,0,0,.3.62c.17.21.32.32.49.32Z"/><path class="cls-9" d="M2.64,7.64v0a.33.33,0,0,1-.29-.18.65.65,0,0,1,0-.13A.45.45,0,0,1,2.43,7a.53.53,0,0,1,.15-.11l0,0a.38.38,0,0,1,.13,0c.12,0,.19.14.19.28a.64.64,0,0,1-.07.28.27.27,0,0,1-.23.18v0m0,0h0a.3.3,0,0,0,.27-.21A.73.73,0,0,0,3,7.13c0-.15-.09-.31-.23-.31a.37.37,0,0,0-.15,0A.7.7,0,0,0,2.4,7a.49.49,0,0,0-.13.27.44.44,0,0,0,0,.15.35.35,0,0,0,.32.2Z"/></g></svg>