<svg id="Capa_1" data-name="Capa 1" xmlns="http://www.w3.org/2000/svg" viewBox="0 0 155 120"><defs><style>.cls-1{fill:#494949;}</style></defs><g id="layer1"><path id="path2846" class="cls-1" d="M18.21,51.38l-3.4,2.73L11.4,56.82l0,4.27A25.35,25.35,0,0,1,11,66.33c-.36.9-.44.86-1.12-.49-1.9-3.76-1.4-6.8,1.7-10.31,2.29-2.61,1.49-2.8-1.76-.41a9.79,9.79,0,0,0-4.24,8.42q0,6.46,6.36,9.37A10.52,10.52,0,0,0,21,72.77c2.28-1.06,5.12-3.7,5.12-4.76,0-.67-.36-.57-2.61.75a14.17,14.17,0,0,1-4.12,1.53l-2.08.34V67.38c0-2.65.15-3.27.79-3.25a4.75,4.75,0,0,0,3.81-1.94c1.11-1.77.81-2.31-.64-1.4-.87.54-1.26.52-2.38-.11s-1.36-1.13-1.48-3l-.15-2.24,2.39.23c2.16.21,2.57.08,4.19-1.34,2-1.73,2-2.92,0-1.63-1.17.76-1.36.74-3.42-.26Zm34.07,0-3.43,2.81L45.41,57v4.81c0,5-.41,5.86-1.7,3.36-1.62-3.13-.21-8.45,2.78-10.55,1.5-1.05.79-1.5-.94-.6A13.37,13.37,0,0,0,40,60.76a10.51,10.51,0,0,0,5.54,12,11.33,11.33,0,0,0,10.53-.5c2.16-1.19,4.87-4.09,4.32-4.64a6.78,6.78,0,0,0-2.56,1,17.79,17.79,0,0,1-4.18,1.61l-1.84.34V55.41l2.08.21c2.22.23,5-1.06,5.61-2.57.46-1.19-.13-1.35-1.55-.42-1.26.82-1.39.81-3.49-.21Zm-22.84.15a8.75,8.75,0,0,0-1.66,1.17c-1.19,1-1.32,1.29-.81,1.91s.57,2.86.45,9c-.11,5.3,0,8.29.32,8.3a4.59,4.59,0,0,1,1.7,1,8.44,8.44,0,0,0,1.37.95,15.18,15.18,0,0,0,3.49-3c0-.19-.6-.41-1.34-.49l-1.33-.15-.14-7.47c-.09-5.42,0-7.67.47-8.2s.36-.93-.83-1.89A7.69,7.69,0,0,0,29.44,51.51Zm102.38,1c-.5,0-1,.35-1.75,1.1L129,54.77l1.31,1c1.6,1.26,1.54,1.25,3.49.07,1.76-1.08,2.05-1.95.66-1.95a2.24,2.24,0,0,1-1.51-.73A1.49,1.49,0,0,0,131.82,52.51ZM15.89,55.11c.27,0,.43.85.43,2.43s-.22,2.69-.48,2.69-.49-1.08-.49-2.4a5,5,0,0,1,.49-2.7Zm33.87,0c.3,0,.46,2.51.46,7.27,0,8.45-.07,8.59-3.29,6.53l-1.59-1,1.95-2.11,2-2.12V59.54c0-2.26.22-4.24.49-4.41Zm53.42,2.28-2.06,1.1A19.29,19.29,0,0,1,98,59.87c-1,.26-1,.57-1,5.38a37.81,37.81,0,0,1-.28,5.85c-.2.54.22.87,1.58,1.25a12.37,12.37,0,0,1,2.59,1c.4.27.84.43,1,.36,1.83-.88,4.86-3.16,4.86-3.64s-.28-.47-1.34.07a2.68,2.68,0,0,1-2.92,0c-2.66-1.12-2.16-2.56,1.85-5.3,3.83-2.62,3.81-2.1.31-5.93Zm-36.52,0L65,58.59a7.11,7.11,0,0,1-2.26,1.16c-1.2,0-1.56,1.42-1.72,6.68s-.12,5.47.81,5.48a7.76,7.76,0,0,1,2.67,1c2.1,1.14,1.79,1.14,3.35,0a9.46,9.46,0,0,1,2.63-1.27l1.3-.33v-6c0-5.1-.11-6-.75-6a8.37,8.37,0,0,1-2.55-.92Zm57.63,0-2.48,1.66-2.49,1.66v4.71a21.14,21.14,0,0,1-.45,5.4c-.35.55.11,1,2.07,1.78,1.38.58,2.64,1.08,2.79,1.11.47.1,4.35-2.92,4.35-3.38,0-.61-.67-.56-1.32.08s-2.48-.16-3.18-1.21c-.48-.72-.47-8.07,0-8.07a4.81,4.81,0,0,1,1.53.8c1.09.77,1.18.76,2-.36,1.26-1.64,1.15-2-1-3.16Zm18.55.22a.51.51,0,0,0-.47.19,8.14,8.14,0,0,1-2.43,1.46l-2.09.92-.16,5a28.68,28.68,0,0,1-.58,5.82c-.32.69-.17.85.76.85a7.45,7.45,0,0,1,2.84.94,6.79,6.79,0,0,0,1.94.86c.14,0,1.51-.72,3-1.49l2.79-1.39V65.26c0-4.85-.1-5.58-.85-5.81-.47-.14-1.77-.67-2.9-1.18A5.42,5.42,0,0,0,142.84,57.68Zm-26.45.14a4.2,4.2,0,0,0-1.8,1l-1.26,1-1-1c-1.35-1.26-2.13-1.22-3.78.23s-1.66,1.71-.36,1.71c.9,0,1,.32,1,4.86,0,2.91-.19,4.86-.49,4.86-1.07,0-.38,1,1.23,1.73a7,7,0,0,1,2,1.25.63.63,0,0,0,.85.09c1.47-.87,3.24-2.32,3.24-2.65s-.6-.43-1.33-.51c-1.34-.16-1.34-.17-1.48-4.49s.4-6.2,1.32-4.71c.58.94,2.81.82,3.94-.2s1.21-1.52-.26-1.89c-.66-.17-1.21-.52-1.21-.78S116.71,57.8,116.39,57.82Zm-39.23.07A3.47,3.47,0,0,0,75,59c-1.6,1.4-1.62,1.52-.36,1.85.88.23,1,.66,1,4.82,0,3-.2,4.77-.59,5.16s-.29.84.85,1.78a8.45,8.45,0,0,0,1.69,1.18,8.16,8.16,0,0,0,1.69-1.18c1.15-.94,1.32-1.31.85-1.78-.91-.92-.81-8.85.13-9.63a1.66,1.66,0,0,1,1.46-.32c1,.37,1.07,9,.13,10-.47.47-.29.84.85,1.78a9.09,9.09,0,0,0,1.7,1.2A8.41,8.41,0,0,0,86,72.66c1.17-1,1.34-1.3.86-1.8s-.61-2.12-.61-4.88c0-3.56.13-4.33.85-4.7,1.77-.91,2.07-.2,2.07,5,0,4.58.09,5.15,1.13,6.35L91.48,74l1.78-1.41c1.93-1.55,2.26-2.27.92-2-.75.13-.86-.4-1-4.59-.11-3.75,0-5,.67-6,.79-1.21.38-1.7-.59-.72-.35.34-.9.19-1.75-.49-1.64-1.29-1.88-1.26-3.55.48l-1.4,1.47-1.15-1.47c-1.4-1.8-2-1.83-4-.2L80,60.33l-1-1.26A2.44,2.44,0,0,0,77.16,57.89Zm54.7,0c-.53,0-1.05.29-1.82.93-1,.84-1.1,1.14-.61,1.93.35.56.58,2.88.58,5.88,0,4.42.12,5.08,1.06,6.08,1.29,1.38,1.29,1.38,3-.08,1.4-1.23,1.77-2.28.73-2.07-.88.17-1.14-9.35-.26-9.93.47-.31.29-.71-.74-1.62C132.93,58.28,132.39,57.91,131.86,57.89ZM100.93,60l1.73,1.87,1.74,1.87-1.52.93a10,10,0,0,1-1.75.92,8.46,8.46,0,0,1-.22-2.79Zm41,.76,1.22.61c1.14.56,1.23.87,1.36,4.84.15,4.47-.15,5-2,3.62-.7-.52-.82-1.29-.7-4.84ZM65.5,61a3.31,3.31,0,0,1,1.23.24c1,.39,1.1.7,1.1,4.81,0,2.41-.17,4.37-.37,4.35a3.58,3.58,0,0,1-2.18-1.13c-.47-.71-.47-7.95,0-8.23A.57.57,0,0,1,65.5,61ZM15.39,63.24a.62.62,0,0,1,.36.09c.35.22.57,1.6.57,3.49,0,3-.06,3.13-1.15,3.13a4.83,4.83,0,0,1-2.43-1l-1.3-1,1.65-1.82A13.06,13.06,0,0,0,15,63.62.52.52,0,0,1,15.39,63.24Z"/></g></svg>