<svg id="Capa_1" data-name="Capa 1" xmlns="http://www.w3.org/2000/svg" viewBox="0 0 155 120"><defs><style>.cls-1{fill:#494949;}</style></defs><g id="_4aacb9ff-6f60-49aa-8494-09fb5c3e053e" data-name="4aacb9ff-6f60-49aa-8494-09fb5c3e053e"><g id="_436664e4-1ed4-4ef5-8fcb-bef6e40e4226" data-name="436664e4-1ed4-4ef5-8fcb-bef6e40e4226"><path class="cls-1" d="M154,67.63H132.92v-.7H154Zm-10.6-4.22,2-1.89.77.77L144,64.05c-.14.21-.28.56-.42.77h-1.54A2.62,2.62,0,0,1,143.4,63.41Zm-6.6-11.94c-.07,0-1.62.42-1.62.42a10,10,0,0,0-1.05.49c-.36.21-.71.56-.71.77l1.41.36a5.43,5.43,0,0,1,.63-.64l.35-.14,1.13-1.19c.07-.07.07-.14-.18-.07Zm9.47,4.07a29.63,29.63,0,0,1-2.42-2.95,8.5,8.5,0,0,0,.57-4.14,10.67,10.67,0,0,0-1-1.48c-.14-.21-.78-.91-1.07-.91-.07,0-.14,0-.14.07l.07.77a34.84,34.84,0,0,0-2.92,2,3,3,0,0,0,.07.84,1.89,1.89,0,0,0,.5.28,18,18,0,0,1,1.92-.35l-1.21,1.76-1.42,1-1.71-.56c-.14,0-.21,0-.29.07l-1.28,1.33a.37.37,0,0,0-.14.29L135.73,55v.42a6.66,6.66,0,0,0,.64,1.62l.78-1.2a2.18,2.18,0,0,0-.72-.84V53.72l1.14-.57,2.11,1.48a10.53,10.53,0,0,0,1.12,1.69,20.07,20.07,0,0,0,3,2.17,8.78,8.78,0,0,0,.43,1.62l2.53,2.6-1.48,1.9c-.58.3-1,1.62-1,1.62h1.74l.21-1,2.14-2.32c.14-.14.14-.21.07-.35l-.57-2a3.66,3.66,0,0,0,.92-2.18c0-1.89-1.92-2.38-2.56-2.91Zm3.18,3a9,9,0,0,0-.5-1.34s.07-.07.29,0a13,13,0,0,1,1.26.84c.56.78.91,4.15.91,5.34a6,6,0,0,1-1.68-1Z"/><path class="cls-1" d="M95.88,57.79c0-1.26-.42-2.25-1.47-2.25s-1.55,1-1.55,2.25v8.44h.7v1.4h-7v-1.4h1.41V55H86.53v-1.4h5.63v2.1h.07A4,4,0,0,1,96,53.26a3.55,3.55,0,0,1,3.73,2.91,14.55,14.55,0,0,1,.21,2.29v7.77H102v1.4H95.67l.07-9.84m-28.82.07c0-1.26-.4-2.25-1.4-2.25s-1.47,1-1.47,2.25v8.37h1.4v1.4H57.72v-1.4h1.41V55H57.72v-1.4h5.62v2.1h.08a4.47,4.47,0,0,1,4.06-2.38,3.83,3.83,0,0,1,4.07,2.86,12.07,12.07,0,0,1,.23,2.24v7.83h1.4v1.4H66.86ZM107.62,55V65.07a1.3,1.3,0,0,0,1,.91h.15c.28,0,1-.14,1-.14v.91a5.35,5.35,0,0,1-2.78.56c-2.2,0-3.55-1-3.55-3.37V54.28H102v-.89c1.76-1.3,3.82-2.8,5.44-4h.88v4.22h1.41V55ZM19.07,46.23s3.39,3.45,4.92,5.2v1.09s-4.38-2.85-7.08-2.88c-6.4,0-10.41,4.85-10.41,10.82s3.8,10.75,10.41,10.75a11.69,11.69,0,0,0,7.78-3.12v1.26a13.66,13.66,0,0,1-10.6,4.5C5.94,73.92.32,68,.32,60.5S14,47.25,14,47.25h0a16.12,16.12,0,0,1,5.06.84ZM84.65,64a3.77,3.77,0,0,1-3.09,1.33c-1.27,0-3.3-.7-3.37-4h7.59c0-.29.07-.78.07-1.06,0-4-1.62-7-5.91-7s-6.46,3.31-6.46,7.38S75.66,68,79.94,68a5.8,5.8,0,0,0,5.55-3.3ZM78.12,59.9c0-3.72.28-5.13,1.54-5.13s1.55,1.34,1.62,5.13Zm-62.62.49c0-4.35.42-6.25,1.9-6.25s1.89,1.9,1.89,6.25-.42,6.26-1.89,6.26-1.9-1.9-1.9-6.26m-5.27.07c0,4.29,2.6,7.8,7.17,7.8s7.17-3.51,7.17-7.8S22,52.63,17.4,52.63s-7.17,3.51-7.17,7.8M34.6,57.86c0-1.26-.4-2.25-1.41-2.25s-1.47,1-1.47,2.25v8.37h1.4v1.4H25.39v-1.4H26.8V55H25.39v-1.4H31v2.1h.07a4.49,4.49,0,0,1,4.07-2.38,3.83,3.83,0,0,1,4.06,2.86,11.28,11.28,0,0,1,.23,2.24v7.83h1.41v1.4H34.53V57.9Zm16-8.33c0,1.27,1.12,2.11,2.74,2.11s2.74-.84,2.74-2.11-1.13-2.1-2.74-2.1-2.74.91-2.74,2.1M46.48,55V65.07a1.51,1.51,0,0,0,1.06.91h.15a7.91,7.91,0,0,0,.9-.14v.91a5.35,5.35,0,0,1-2.78.56c-2.2,0-3.55-1-3.55-3.37V54.28h-1.4v-.89c1.77-1.3,3.84-2.8,5.47-4h.85v4.22h1.41V55Zm83.59,11.25h1.44v1.4h-6.32V49.36h-1.41V48h6.33V66.26ZM117.46,60.5a1.36,1.36,0,0,0-1-.28c-1.33,0-1.61,1.33-1.61,2.67s.42,2.39,1.54,2.39a1.24,1.24,0,0,0,1.06-.43Zm.83,5.36h0a4,4,0,0,1-3.5,2.07c-2.19,0-3.51-2.07-3.51-4.59a4.6,4.6,0,0,1,5-4.88,5,5,0,0,1,1.92.29v-.54a2.36,2.36,0,0,0-2-2.6h-.39a3.67,3.67,0,0,0-3,1.69l-.72-1a6.26,6.26,0,0,1,5.27-3.24,4.77,4.77,0,0,1,5.14,5.13v8h1.4v1.4h-5.42l-.07-1.77ZM50,67.63v-1.4H51.4V55H50v-1.4h5.62V66.23H57v1.4Z"/></g></g></svg>