<svg id="Capa_1" data-name="Capa 1" xmlns="http://www.w3.org/2000/svg" viewBox="0 0 155 120"><defs><style>.cls-1{fill:#494949;}.cls-2{fill:#fff;}</style></defs><path class="cls-1" d="M135.42,90.55A9.56,9.56,0,0,0,145,81V38.58A9.52,9.52,0,0,0,135.42,29H19.78a9.54,9.54,0,0,0-9.59,9.58V81a9.58,9.58,0,0,0,9.59,9.58Z"/><path class="cls-2" d="M134.77,86.07a5.93,5.93,0,0,0,6-6V39.44a6,6,0,0,0-6-6H20.42a5.88,5.88,0,0,0-6,5.82V80.11a5.82,5.82,0,0,0,5.7,6H134.77Z"/><path class="cls-1" d="M55.34,57.1V70.54h-7V68.6s-5.14,3.1-8.76,3.19c-10.2-.08-14.08-9.25-14.06-15.54S29.68,41,40.63,40.91c7.22.05,14.68,4.78,14.7,13.87H48.09c-1-3.42-4.15-7-4.9-7.9a2.76,2.76,0,0,0-4.26,0c-5.29,5.57-5.34,8.21-5.33,10.64a6.74,6.74,0,0,0,6.66,6.82h.16a7.14,7.14,0,0,0,7.45-7.24h7.47Z"/><path class="cls-1" d="M40.63,62.63a5.25,5.25,0,0,0,5.11-5.32,5.14,5.14,0,0,0-5-5.32h-.15a5.25,5.25,0,0,0-5.32,5.18v.15A5.36,5.36,0,0,0,40.63,62.63Zm38.56-13.4v5.12h2.75V65.41c.06,1.88.3,5.23,3.83,5.13h8.09V65.41H91.13c-.93.09-1.63-.22-1.69-1.27V54.35h2.75V49.23H89.44V44.75h-7.5v4.48Zm14.29,0v5.12h2.75V65.41c.09,1.88.32,5.23,3.84,5.13h8.3V65.41h-3c-.91.09-1.61-.22-1.69-1.27V54.35h3V49.23h-3V44.75H96.23v4.48Z"/><path class="cls-1" d="M107.09,49.23l6.8,21.27A1.14,1.14,0,0,1,112.62,72h-4.9v5.13h9c1.61,0,4.09,1.19,6.17-5.11l7.24-22.78h-7.46l-4.05,13-4.25-13Zm-43,13c-.1,2.17,1.72,4.17,4.47,4.29a3.88,3.88,0,0,0,3.41-3h7.67c-1,6.22-6.73,8.19-11.5,8.11-6.59.08-11.62-4.17-11.51-11.93.1-8.06,4.53-11.68,11.29-11.71,7.91,0,11.8,5.46,11.72,14.24Z"/><path class="cls-2" d="M72.15,57.1a3.71,3.71,0,0,0-3.83-3.62,4.16,4.16,0,0,0-4.26,3.62Z"/></svg>