<svg id="Capa_1" data-name="Capa 1" xmlns="http://www.w3.org/2000/svg" viewBox="0 0 117 42"><defs><style>.cls-1{fill:#1c1c1c;}.cls-2{fill:#ff5416;}</style></defs><path class="cls-1" d="M56.44,42.13V32.47c0-.54,0-1.14.05-1.78a17.18,17.18,0,0,1,.17-1.77h-.24a7.85,7.85,0,0,1-2.57,2.52,8.17,8.17,0,0,1-4.3,1,7.94,7.94,0,0,1-6.45-3c-1.63-2-2.44-4.9-2.44-8.78a16.34,16.34,0,0,1,1.13-6.49,8.78,8.78,0,0,1,3.17-4,8.43,8.43,0,0,1,4.76-1.35,8,8,0,0,1,4.24,1,8.48,8.48,0,0,1,2.62,2.5h.16l.54-3.08h4V42.13ZM51,28.57a6.09,6.09,0,0,0,3.29-.78,4.42,4.42,0,0,0,1.79-2.37,13,13,0,0,0,.59-4v-.74a11.33,11.33,0,0,0-1.25-5.88c-.84-1.34-2.32-2-4.46-2a4.42,4.42,0,0,0-4,2.11,11.06,11.06,0,0,0-1.31,5.84,10.56,10.56,0,0,0,1.32,5.79A4.55,4.55,0,0,0,51,28.57Z"/><path class="cls-1" d="M70.63.59a3.13,3.13,0,0,1,1.92.59,2.37,2.37,0,0,1,.82,2.06,2.35,2.35,0,0,1-.82,2,3.36,3.36,0,0,1-3.86,0,2.39,2.39,0,0,1-.79-2,2.41,2.41,0,0,1,.79-2.06A3.13,3.13,0,0,1,70.63.59ZM73,9.3V32H68.19V9.3Z"/><path class="cls-1" d="M91.45,8.87c.38,0,.8,0,1.25.06a10.06,10.06,0,0,1,1.17.16l-.45,4.52a6.26,6.26,0,0,0-1.06-.18c-.42,0-.79-.06-1.12-.06a7.23,7.23,0,0,0-2.46.42,5.78,5.78,0,0,0-2.08,1.27,5.94,5.94,0,0,0-1.42,2.13,7.91,7.91,0,0,0-.51,3V32H79.92V9.3H83.7l.66,4h.22a10.54,10.54,0,0,1,1.69-2.21,8,8,0,0,1,2.31-1.62A6.8,6.8,0,0,1,91.45,8.87Z"/><path class="cls-1" d="M107,8.87c2.88,0,5,.63,6.52,1.91s2.21,3.26,2.21,6V32H112.3l-.92-3.22h-.17a11.65,11.65,0,0,1-2,2,7.36,7.36,0,0,1-2.37,1.2,11.53,11.53,0,0,1-3.28.4,8.49,8.49,0,0,1-3.64-.75,5.72,5.72,0,0,1-2.53-2.29,7.55,7.55,0,0,1-.92-3.9,5.94,5.94,0,0,1,2.62-5.28q2.63-1.77,7.92-1.95l3.94-.15V16.94a4.42,4.42,0,0,0-1.09-3.37,4.45,4.45,0,0,0-3.1-1,11.09,11.09,0,0,0-3.3.5,23.8,23.8,0,0,0-3.13,1.21l-1.56-3.41a17.82,17.82,0,0,1,8.22-2Zm3.94,12.3-2.93.11c-2.41.08-4.11.49-5.08,1.23a3.62,3.62,0,0,0-1.46,3,2.89,2.89,0,0,0,1,2.45,4.19,4.19,0,0,0,2.65.77,6.14,6.14,0,0,0,4.16-1.42,5.26,5.26,0,0,0,1.65-4.2Z"/><polygon class="cls-2" points="12.07 21.29 17.54 16.91 24.11 21.29 18.64 24.57 12.07 21.29"/><path class="cls-1" d="M18.05,25.92.94,15.46,17.2,5.9l17.11,9.5ZM5.9,15.51,18,22.91l11.34-7.34L17.24,8.84Z"/><path class="cls-1" d="M17.84,36,.73,25.53,17,16,34.1,25.47ZM5.69,25.57,17.81,33l11.34-7.34L17,18.9Z"/></svg>