<svg id="Capa_1" data-name="Capa 1" xmlns="http://www.w3.org/2000/svg" viewBox="0 0 155 120"><defs><style>.cls-1{fill:#202020;}.cls-2{fill:#a3a3a3;}.cls-3{fill:#858585;}.cls-4{fill:#494949;}.cls-5{fill:#aaa;}</style></defs><path class="cls-1" d="M150,117v.3h.28a.42.42,0,0,0,.15,0,.13.13,0,0,0,.05-.12.13.13,0,0,0-.05-.11.42.42,0,0,0-.15,0H150Zm.26-.23a.47.47,0,0,1,.32.1.39.39,0,0,1,.11.28.35.35,0,0,1-.09.25.42.42,0,0,1-.25.12l.35.46h-.21l-.37-.46H150v.46h-.23v-1.21h.49Zm0,1.56a.91.91,0,0,0,.37-.08.87.87,0,0,0,.51-.51,1,1,0,0,0,0-.74.87.87,0,0,0-.51-.51.9.9,0,0,0-.37-.07.94.94,0,0,0-.37.07,1.1,1.1,0,0,0-.31.2,1,1,0,0,0-.21,1.06.9.9,0,0,0,.21.3,1,1,0,0,0,.31.21.77.77,0,0,0,.37.07m0-2.19a1.24,1.24,0,0,1,.89.37,1.05,1.05,0,0,1,.27.39,1.21,1.21,0,0,1,0,1,1.56,1.56,0,0,1-.27.4,1.31,1.31,0,0,1-.4.26,1.25,1.25,0,0,1-1,0,1.2,1.2,0,0,1-.4-.26,1.22,1.22,0,0,1-.27-.41,1.21,1.21,0,0,1,0-1,1.41,1.41,0,0,1,.27-.4,1.2,1.2,0,0,1,.4-.26,1.24,1.24,0,0,1,.5-.1m-115.68-4.4a3.76,3.76,0,1,1,3.76,4,3.72,3.72,0,0,1-3.76-4m10.06,0v-6.2H41.88V107a4.78,4.78,0,0,0-4-1.81,6.5,6.5,0,0,0,0,13,4.79,4.79,0,0,0,4-1.81v1.5h2.64v-6.19Zm91.08,0a3.76,3.76,0,1,1,3.76,4,3.72,3.72,0,0,1-3.76-4m10.07,0V100.48H143V107a4.76,4.76,0,0,0-3.95-1.81,6.51,6.51,0,0,0,0,13,4.76,4.76,0,0,0,3.95-1.81v1.5h2.72ZM78,107.59c1.74,0,2.85,1.09,3.14,3H74.75a3.19,3.19,0,0,1,3.29-3m.06-2.42c-3.64,0-6.18,2.64-6.18,6.51a6.11,6.11,0,0,0,6.36,6.51,7.56,7.56,0,0,0,5.08-1.74l-1.32-2a5.94,5.94,0,0,1-3.61,1.3,3.44,3.44,0,0,1-3.71-3h9.21c0-.33,0-.67,0-1,0-3.87-2.41-6.51-5.89-6.51m32.56,6.5a3.75,3.75,0,1,1,3.76,4,3.72,3.72,0,0,1-3.76-4m10,0v-6.21H118V107a4.78,4.78,0,0,0-4-1.81,6.5,6.5,0,0,0,0,13,4.78,4.78,0,0,0,4-1.81v1.5h2.72v-6.17Zm-25.25,0a6.27,6.27,0,0,0,6.62,6.52,6.48,6.48,0,0,0,4.45-1.48l-1.29-2.18a5.43,5.43,0,0,1-3.25,1.11,4,4,0,0,1,0-7.94,5.47,5.47,0,0,1,3.25,1.12l1.29-2.18a6.5,6.5,0,0,0-4.45-1.48,6.27,6.27,0,0,0-6.62,6.51m34.79-6.51a3.66,3.66,0,0,0-3.27,1.82v-1.52h-2.72v12.39h2.72v-6.92c0-2.06.88-3.2,2.64-3.2a4.45,4.45,0,0,1,1.69.32l.83-2.55a5.88,5.88,0,0,0-1.92-.33m-72.27,1.29a9.34,9.34,0,0,0-5.06-1.29c-3.14,0-5.16,1.5-5.16,4,0,2,1.5,3.27,4.28,3.66l1.27.18c1.48.21,2.18.6,2.18,1.3,0,1-1,1.51-2.83,1.51a6.59,6.59,0,0,1-4.12-1.3l-1.27,2.1a9,9,0,0,0,5.37,1.61c3.58,0,5.65-1.69,5.65-4,0-2.18-1.63-3.32-4.33-3.7l-1.27-.19c-1.17-.15-2.1-.38-2.1-1.22s.88-1.45,2.36-1.45a8,8,0,0,1,3.87,1.07l1.16-2.18Zm34.82-1.29A3.66,3.66,0,0,0,89.47,107v-1.52H86.75v12.39h2.72v-6.92c0-2.06.88-3.2,2.64-3.2a4.45,4.45,0,0,1,1.69.32l.83-2.55a5.88,5.88,0,0,0-1.92-.33m-23,.29H65.29v-3.78H62.58v3.78h-2.5V108h2.5v5.66c0,2.88,1.11,4.59,4.29,4.59a6.3,6.3,0,0,0,3.37-1l-.78-2.31a4.91,4.91,0,0,1-2.38.7c-1.35,0-1.79-.83-1.79-2.07V108h4.39Zm-40.27,12.4v-7.78a4.62,4.62,0,0,0-4.89-4.93,4.79,4.79,0,0,0-4.36,2.2,4.58,4.58,0,0,0-4.11-2.2A4.13,4.13,0,0,0,12.41,107v-1.53H9.69v12.39h2.72V111c0-2.15,1.22-3.3,3.06-3.3s2.7,1.17,2.69,3.27v7h2.71V111c0-2.15,1.27-3.3,3.06-3.3s2.72,1.17,2.69,3.27v6.88Z"/><path class="cls-2" d="M151.57,76.6V74.79h-.48L150.55,76,150,74.79h-.47V76.6h.3V75.27l.52,1.18h.35l.49-1.18V76.6Zm-3,0V75.17h.61v-.3h-1.51v.3h.6V76.6Z"/><path class="cls-3" d="M97.85,84.39H57V11H97.85Z"/><path class="cls-4" d="M59.61,47.7A46.64,46.64,0,0,1,77.44,11,46.7,46.7,0,1,0,48.59,94.4a46.46,46.46,0,0,0,28.85-10A46.62,46.62,0,0,1,59.61,47.7"/><path class="cls-5" d="M153,47.7A46.69,46.69,0,0,1,77.45,84.41a46.72,46.72,0,0,0,0-73.43A46.7,46.7,0,0,1,153,47.7"/></svg>