<svg id="Capa_1" data-name="Capa 1" xmlns="http://www.w3.org/2000/svg" viewBox="0 0 155 120"><defs><style>.cls-1{fill:#d3d3d3;}.cls-2{fill:#9e9e9e;}</style></defs><path class="cls-1" d="M94.55,34a28.5,28.5,0,0,1,10.88,2.21,29.58,29.58,0,0,1,3.34,1.65A28.6,28.6,0,1,1,94.55,34Zm.62,40.36.61,0,.61-.08.61-.11A11.83,11.83,0,0,0,97,51l-.61-.11-.61-.08-.61,0-.62,0a11.84,11.84,0,0,0,0,23.66Z"/><path class="cls-2" d="M61.45,34a27.53,27.53,0,0,1,3.74.25,28.87,28.87,0,0,1,7.23,2,30.08,30.08,0,0,1,3.37,1.66A28.6,28.6,0,1,1,61.45,34Zm0,40.38.61,0,.62,0,.61-.08.61-.11A11.83,11.83,0,0,0,63.9,51l-.61-.11-.61-.08-.62,0-.61,0a11.84,11.84,0,0,0,0,23.66Z"/></svg>