<svg id="Capa_1" data-name="Capa 1" xmlns="http://www.w3.org/2000/svg" viewBox="0 0 155 120"><defs><style>.cls-1{fill:#202020;}.cls-2{fill:#a3a3a3;}.cls-3{fill:#858585;}.cls-4{fill:#494949;}.cls-5{fill:#aaa;}</style></defs><path class="cls-1" d="M112.69,86.69v.15h.14l.08,0a.07.07,0,0,0,0-.06.09.09,0,0,0,0-.06.11.11,0,0,0-.08,0Zm.14-.12a.27.27,0,0,1,.15.05.2.2,0,0,1,.06.15.17.17,0,0,1-.17.18l.18.23h-.11l-.19-.23h-.06v.23h-.11v-.61Zm0,.79a.58.58,0,0,0,.19,0,.78.78,0,0,0,.15-.1.54.54,0,0,0,.1-.16.48.48,0,0,0,0-.37.54.54,0,0,0-.1-.16.78.78,0,0,0-.15-.1.58.58,0,0,0-.19,0,.65.65,0,0,0-.19,0,.54.54,0,0,0-.16.1.53.53,0,0,0-.1.54.78.78,0,0,0,.1.15.54.54,0,0,0,.16.1.43.43,0,0,0,.19,0m0-1.1a.63.63,0,0,1,.45.18.53.53,0,0,1,.13.2.57.57,0,0,1,0,.48.63.63,0,0,1-.13.2.86.86,0,0,1-.2.13.7.7,0,0,1-.25,0,.74.74,0,0,1-.25,0,.86.86,0,0,1-.2-.13.67.67,0,0,1-.13-.69.57.57,0,0,1,.33-.33.74.74,0,0,1,.25,0M54.53,84a1.89,1.89,0,1,1,1.89,2,1.87,1.87,0,0,1-1.89-2m5.07,0V80.9H58.23v.76a2.42,2.42,0,0,0-2-.91,3.28,3.28,0,0,0,0,6.55,2.4,2.4,0,0,0,2-.92v.76h1.33V84Zm45.89,0a1.89,1.89,0,1,1,1.89,2,1.87,1.87,0,0,1-1.89-2m5.07,0V78.39h-1.37v3.27a2.37,2.37,0,0,0-2-.92,3.28,3.28,0,0,0,0,6.56,2.37,2.37,0,0,0,2-.92v.76h1.37ZM76.45,82A1.56,1.56,0,0,1,78,83.49H74.79A1.61,1.61,0,0,1,76.45,82m0-1.22A3.05,3.05,0,0,0,73.36,84a3.08,3.08,0,0,0,3.21,3.28,3.79,3.79,0,0,0,2.56-.87l-.67-1a3,3,0,0,1-1.82.65,1.74,1.74,0,0,1-1.87-1.53h4.64a4.41,4.41,0,0,0,0-.52,3,3,0,0,0-3-3.28M92.88,84a1.89,1.89,0,1,1,1.89,2,1.87,1.87,0,0,1-1.89-2m5,0V80.9H96.55v.76a2.39,2.39,0,0,0-2-.91,3.28,3.28,0,0,0,0,6.55,2.37,2.37,0,0,0,2-.92v.76h1.37V84ZM85.2,84a3.16,3.16,0,0,0,3.34,3.28,3.28,3.28,0,0,0,2.24-.74l-.65-1.1a2.8,2.8,0,0,1-1.64.56,2,2,0,0,1,0-4,2.8,2.8,0,0,1,1.64.56l.65-1.1a3.28,3.28,0,0,0-2.24-.74A3.16,3.16,0,0,0,85.2,84m17.53-3.28a1.88,1.88,0,0,0-1.65.91V80.9H99.71v6.24h1.37V83.65c0-1,.45-1.61,1.34-1.61a2.25,2.25,0,0,1,.85.16l.41-1.28a2.82,2.82,0,0,0-1-.17M66.3,81.4a4.65,4.65,0,0,0-2.54-.65c-1.59,0-2.61.76-2.61,2,0,1,.76,1.65,2.16,1.84l.64.09c.75.11,1.1.31,1.1.66s-.5.76-1.43.76a3.25,3.25,0,0,1-2.07-.66l-.64,1.06a4.47,4.47,0,0,0,2.7.81c1.81,0,2.85-.85,2.85-2s-.82-1.67-2.18-1.86l-.64-.1c-.59-.07-1.06-.19-1.06-.61S63,82,63.77,82a4.1,4.1,0,0,1,1.95.53l.59-1.09Zm17.55-.65a1.86,1.86,0,0,0-1.65.92V80.9H80.83v6.24H82.2V83.65c0-1,.45-1.61,1.34-1.61a2.25,2.25,0,0,1,.85.16l.42-1.28a2.92,2.92,0,0,0-1-.17m-11.61.15H70V79H68.65v1.9H67.4v1.26h1.25V85c0,1.44.57,2.31,2.17,2.31a3.13,3.13,0,0,0,1.69-.48l-.39-1.17a2.43,2.43,0,0,1-1.2.36c-.67,0-.9-.42-.9-1V82.16h2.21ZM51.94,87.14V83.22a2.33,2.33,0,0,0-2.46-2.48,2.45,2.45,0,0,0-2.2,1.11,2.3,2.3,0,0,0-2.07-1.11,2.08,2.08,0,0,0-1.83.93V80.9H42v6.24h1.37V83.69A1.47,1.47,0,0,1,44.92,82c.9,0,1.36.59,1.35,1.65v3.5h1.37V83.69A1.49,1.49,0,0,1,49.18,82c.93,0,1.37.59,1.36,1.65v3.46Z"/><path class="cls-2" d="M113.49,66.36v-.91h-.24l-.27.62-.28-.62h-.24v.91h.16v-.67l.26.59h.18l.24-.59v.67Zm-1.52,0v-.72h.3v-.16h-.76v.16h.31v.72Z"/><path class="cls-3" d="M86.43,70.28H65.84v-37H86.43Z"/><path class="cls-4" d="M67.16,51.8a23.47,23.47,0,0,1,9-18.5,23.53,23.53,0,1,0,0,37,23.45,23.45,0,0,1-9-18.49"/><path class="cls-5" d="M114.22,51.8A23.53,23.53,0,0,1,76.15,70.29a23.54,23.54,0,0,0,0-37,23.52,23.52,0,0,1,38.06,18.5"/></svg>